<svg xmlns="http://www.w3.org/2000/svg" xmlns:xlink="http://www.w3.org/1999/xlink" viewBox="0 0 1327.76 651.41"><defs><style>.cls-1{fill:#eaf6fc;}.cls-2{mask:url(#mask);}.cls-3{fill:#84a26c;}.cls-4,.cls-7{fill:#608146;}.cls-4,.cls-69,.cls-7,.cls-70,.cls-71{fill-rule:evenodd;}.cls-5{fill:#b2c8a1;}.cls-19,.cls-21,.cls-23,.cls-24,.cls-33,.cls-34,.cls-39,.cls-59,.cls-6,.cls-66,.cls-73,.cls-74,.cls-79,.cls-81,.cls-91,.cls-92{fill:none;}.cls-6{stroke:#618545;stroke-width:1.22px;}.cls-24,.cls-33,.cls-6{stroke-linecap:round;}.cls-7{opacity:0.47;}.cls-16,.cls-21,.cls-28,.cls-30,.cls-32,.cls-42,.cls-48,.cls-62,.cls-68,.cls-7,.cls-74,.cls-79,.cls-91,.cls-92,.cls-93{isolation:isolate;}.cls-8{fill:#6d845b;}.cls-9{fill:url(#linear-gradient);}.cls-10,.cls-28{fill:#dadfe4;}.cls-11,.cls-30{fill:#fff;}.cls-12{fill:#c26f48;}.cls-13{fill:#88b3c4;}.cls-14{fill:#c2dee9;}.cls-15,.cls-16{fill:#0055ae;}.cls-16{opacity:0.25;}.cls-17{fill:#0253ac;}.cls-18,.cls-93{fill:#f1f2f4;}.cls-19,.cls-33,.cls-74,.cls-92{stroke:#fff;}.cls-19,.cls-21,.cls-23,.cls-34,.cls-39,.cls-59,.cls-66,.cls-73,.cls-74,.cls-79,.cls-81,.cls-91,.cls-92{stroke-miterlimit:10;}.cls-20{fill:#f1a27b;}.cls-21,.cls-34,.cls-79,.cls-91{stroke:#dadfe4;}.cls-21{opacity:0.29;}.cls-22{fill:url(#linear-gradient-2);}.cls-23{stroke:url(#linear-gradient-3);}.cls-24{stroke:#0055ae;}.cls-24,.cls-33{stroke-linejoin:round;}.cls-25{fill:url(#linear-gradient-4);}.cls-26{fill:url(#linear-gradient-5);}.cls-27{fill:#f5f6f9;}.cls-28,.cls-79{opacity:0.21;}.cls-29{fill:url(#linear-gradient-6);}.cls-30{opacity:0.42;}.cls-31{fill:url(#linear-gradient-7);}.cls-32{opacity:0.86;fill:url(#linear-gradient-8);}.cls-33{stroke-width:3px;}.cls-35{fill:#de7857;}.cls-36{fill:#fdfdfd;}.cls-37{fill:#d8dbe2;}.cls-38{fill:#e1e1e1;}.cls-39{stroke:#f5f6f9;}.cls-40{fill:url(#linear-gradient-9);}.cls-41,.cls-42,.cls-48,.cls-62,.cls-92,.cls-93{opacity:0.37;}.cls-42{fill:url(#linear-gradient-10);}.cls-43{fill:#d8deef;}.cls-44{fill:url(#linear-gradient-11);}.cls-45{fill:#ededed;}.cls-46{fill:#babfd6;}.cls-47{fill:#f3f4f6;}.cls-48{fill:url(#linear-gradient-12);}.cls-49{fill:#571715;}.cls-50{fill:#263ca1;}.cls-51{fill:url(#linear-gradient-13);}.cls-52{fill:url(#linear-gradient-14);}.cls-53{fill:url(#linear-gradient-15);}.cls-54{fill:url(#linear-gradient-16);}.cls-55{fill:url(#linear-gradient-17);}.cls-56{fill:url(#linear-gradient-18);}.cls-57{fill:url(#linear-gradient-19);}.cls-58{fill:url(#linear-gradient-20);}.cls-59{stroke:#f1f2f5;}.cls-60,.cls-62{fill:#a85f42;}.cls-61{fill:url(#linear-gradient-21);}.cls-63{fill:url(#linear-gradient-22);}.cls-64{fill:url(#linear-gradient-23);}.cls-65{fill:#121430;}.cls-66{stroke:#cc7b63;}.cls-67{fill:#070404;}.cls-68{opacity:0.6;fill:url(#linear-gradient-24);}.cls-69{fill:url(#linear-gradient-25);}.cls-70{fill:url(#linear-gradient-26);}.cls-71{fill:url(#linear-gradient-27);}.cls-72{fill:#e9ecf7;}.cls-73{stroke:#e9ecf7;}.cls-74{opacity:0.45;}.cls-75{fill:#3f0e0e;}.cls-76{fill:#ebecf0;}.cls-77{fill:#b7603e;}.cls-78{fill:url(#linear-gradient-28);}.cls-80{fill:#8cb653;}.cls-81{stroke:#000;}.cls-82{fill:url(#linear-gradient-29);}.cls-83{fill:url(#linear-gradient-30);}.cls-84{fill:url(#linear-gradient-31);}.cls-85{fill:url(#linear-gradient-32);}.cls-86{fill:url(#linear-gradient-33);}.cls-87{fill:url(#linear-gradient-34);}.cls-88{fill:url(#linear-gradient-35);}.cls-89{fill:url(#linear-gradient-36);}.cls-90{fill:url(#linear-gradient-37);}.cls-91{opacity:0.95;}.cls-94{fill:url(#linear-gradient-38);}.cls-95{fill:url(#linear-gradient-39);}.cls-96{fill:url(#linear-gradient-40);}</style><mask id="mask" x="195.63" y="182" width="155.16" height="220.43" maskUnits="userSpaceOnUse"><g id="mask1"><path class="cls-1" d="M340.53,182H212.9V395.77H340.53Z"/></g></mask><linearGradient id="linear-gradient" x1="-334.15" y1="1224.57" x2="-188.21" y2="1224.57" gradientTransform="matrix(1, 0, 0, -1, 539, 1622.29)" gradientUnits="userSpaceOnUse"><stop offset="0.11" stop-color="#dadfe4"/><stop offset="1" stop-color="#dadfe4" stop-opacity="0"/></linearGradient><linearGradient id="linear-gradient-2" x1="586.91" y1="1232.29" x2="583.71" y2="1270.49" xlink:href="#linear-gradient"/><linearGradient id="linear-gradient-3" x1="548.3" y1="1256.56" x2="582.26" y2="1256.56" gradientTransform="matrix(1, 0, 0, -1, 539, 1622.29)" gradientUnits="userSpaceOnUse"><stop offset="0.13" stop-color="#8cb653"/><stop offset="0.27" stop-color="#88b356"/><stop offset="0.42" stop-color="#7baa5e"/><stop offset="0.57" stop-color="#659b6c"/><stop offset="0.73" stop-color="#468680"/><stop offset="0.89" stop-color="#206b99"/><stop offset="1" stop-color="#0055ae"/></linearGradient><linearGradient id="linear-gradient-4" x1="534.55" y1="1275.68" x2="533.59" y2="1213.67" xlink:href="#linear-gradient"/><linearGradient id="linear-gradient-5" x1="597.53" y1="1279.8" x2="664.9" y2="1283.15" xlink:href="#linear-gradient"/><linearGradient id="linear-gradient-6" x1="631.23" y1="1341.19" x2="595.51" y2="1236.19" xlink:href="#linear-gradient-3"/><linearGradient id="linear-gradient-7" x1="499.75" y1="1286.24" x2="506.14" y2="1243.72" xlink:href="#linear-gradient"/><linearGradient id="linear-gradient-8" x1="502.56" y1="1290.93" x2="508.95" y2="1248.42" xlink:href="#linear-gradient-3"/><linearGradient id="linear-gradient-9" x1="701.29" y1="1283.1" x2="726.17" y2="1283.1" gradientTransform="matrix(1, 0, 0, -1, 539, 1622.29)" gradientUnits="userSpaceOnUse"><stop offset="0.1" stop-color="#de7857" stop-opacity="0"/><stop offset="1" stop-color="#de7857"/></linearGradient><linearGradient id="linear-gradient-10" x1="736.81" y1="1232" x2="788.75" y2="1232" xlink:href="#linear-gradient-9"/><linearGradient id="linear-gradient-11" x1="732.71" y1="1246.19" x2="770.72" y2="1235.29" gradientTransform="matrix(1, 0, 0, -1, 539, 1622.29)" gradientUnits="userSpaceOnUse"><stop offset="0.14" stop-color="#0055ae"/><stop offset="1" stop-color="#0055ae" stop-opacity="0"/></linearGradient><linearGradient id="linear-gradient-12" x1="712.09" y1="1266.88" x2="737.95" y2="1266.88" xlink:href="#linear-gradient-9"/><linearGradient id="linear-gradient-13" x1="621.69" y1="1245.28" x2="692.26" y2="1207.88" xlink:href="#linear-gradient-9"/><linearGradient id="linear-gradient-14" x1="365.3" y1="1090.18" x2="397.35" y2="1090.18" gradientTransform="matrix(1, 0, 0, -1, 539, 1622.29)" gradientUnits="userSpaceOnUse"><stop offset="0.11" stop-color="#dadfe4"/><stop offset="1" stop-color="#dadfe4"/></linearGradient><linearGradient id="linear-gradient-15" x1="365.47" y1="1097.22" x2="397.33" y2="1097.22" xlink:href="#linear-gradient-14"/><linearGradient id="linear-gradient-16" x1="449.29" y1="1073.69" x2="474.73" y2="1073.69" xlink:href="#linear-gradient-14"/><linearGradient id="linear-gradient-17" x1="398.37" y1="1056.6" x2="421.33" y2="1056.6" xlink:href="#linear-gradient-14"/><linearGradient id="linear-gradient-18" x1="372.23" y1="1060.47" x2="391.39" y2="1060.47" xlink:href="#linear-gradient-14"/><linearGradient id="linear-gradient-19" x1="-444.37" y1="1104.24" x2="-475.63" y2="1097.29" xlink:href="#linear-gradient-14"/><linearGradient id="linear-gradient-20" x1="-472.07" y1="1057.54" x2="-495.02" y2="1057.54" xlink:href="#linear-gradient-14"/><linearGradient id="linear-gradient-21" x1="-314.86" y1="1243.03" x2="-312.26" y2="1205.08" xlink:href="#linear-gradient-3"/><linearGradient id="linear-gradient-22" x1="-329.09" y1="1273.97" x2="-354.26" y2="1269.63" xlink:href="#linear-gradient-9"/><linearGradient id="linear-gradient-23" x1="-341.09" y1="1220.14" x2="-343.01" y2="1158.41" xlink:href="#linear-gradient-3"/><linearGradient id="linear-gradient-24" x1="179.16" y1="1089.87" x2="174.53" y2="1414.07" xlink:href="#linear-gradient"/><linearGradient id="linear-gradient-25" x1="400.58" y1="1512.43" x2="400.58" y2="1292.09" gradientTransform="matrix(1, 0, 0, -1, 539, 1622.29)" gradientUnits="userSpaceOnUse"><stop offset="0" stop-color="#fff" stop-opacity="0"/><stop offset="1" stop-color="#f1f2f4"/></linearGradient><linearGradient id="linear-gradient-26" x1="13.86" y1="1540.02" x2="13.86" y2="1352.35" xlink:href="#linear-gradient-25"/><linearGradient id="linear-gradient-27" x1="-85.81" y1="1622.29" x2="-85.81" y2="1401.95" xlink:href="#linear-gradient-25"/><linearGradient id="linear-gradient-28" x1="160.09" y1="1260.79" x2="160.89" y2="1250.28" xlink:href="#linear-gradient-3"/><linearGradient id="linear-gradient-29" x1="126.66" y1="1239.83" x2="165.02" y2="1243.71" xlink:href="#linear-gradient-9"/><linearGradient id="linear-gradient-30" x1="125.98" y1="1237.09" x2="164.33" y2="1240.98" xlink:href="#linear-gradient-9"/><linearGradient id="linear-gradient-31" x1="127.43" y1="1232.31" x2="165.78" y2="1236.2" xlink:href="#linear-gradient-9"/><linearGradient id="linear-gradient-32" x1="127.81" y1="1228.5" x2="166.17" y2="1232.39" xlink:href="#linear-gradient-9"/><linearGradient id="linear-gradient-33" x1="-36.66" y1="1181.69" x2="12.62" y2="1181.69" xlink:href="#linear-gradient-9"/><linearGradient id="linear-gradient-34" x1="29.73" y1="1230.94" x2="31.47" y2="1239.81" xlink:href="#linear-gradient-9"/><linearGradient id="linear-gradient-35" x1="17.41" y1="1250.29" x2="53.08" y2="1250.29" xlink:href="#linear-gradient-9"/><linearGradient id="linear-gradient-36" x1="17.03" y1="1268.9" x2="53.08" y2="1268.9" xlink:href="#linear-gradient-9"/><linearGradient id="linear-gradient-37" x1="127.68" y1="1229.8" x2="166.03" y2="1233.69" xlink:href="#linear-gradient-9"/><linearGradient id="linear-gradient-38" x1="169.68" y1="1169.13" x2="172.83" y2="1197.31" gradientTransform="matrix(1, 0, 0, -1, 539, 1622.29)" gradientUnits="userSpaceOnUse"><stop offset="0.11" stop-color="#f5f6f9"/><stop offset="1" stop-color="#f5f6f9" stop-opacity="0"/></linearGradient><linearGradient id="linear-gradient-39" x1="47.73" y1="1167.53" x2="48.21" y2="1149.67" gradientTransform="matrix(1, 0, 0, -1, 539, 1622.29)" gradientUnits="userSpaceOnUse"><stop offset="0.13" stop-color="#8cb653"/><stop offset="0.19" stop-color="#8bb554"/><stop offset="0.3" stop-color="#85b158"/><stop offset="0.45" stop-color="#73a464"/><stop offset="0.62" stop-color="#569077"/><stop offset="0.82" stop-color="#2d7491"/><stop offset="1" stop-color="#0055ae"/></linearGradient><linearGradient id="linear-gradient-40" x1="89.58" y1="1213.54" x2="85.74" y2="1123.72" xlink:href="#linear-gradient-3"/></defs><g id="Layer_2" data-name="Layer 2"><g id="Layer_1-2" data-name="Layer 1"><path class="cls-1" d="M341.62,182.11H214V395.88H341.62Z"/><g class="cls-2"><path class="cls-3" d="M210.77,371.46c-2.5,1.85-2.85,21.32,3.51,30.84,5.93.26,37.4,0,37.4,0,6.54-7.1,5.95-11,2.88-16.94-1.6-3.13-11.53-8.78-7.07-11.7,7.07-4.62,11-28.22,1.39-25.52-2.56.72-5.88,3.43-5.88,3.43s-3.29-18.11-16-12.49c-9.1,4,7.56,11.72,0,20.67-2.17,2.56-4.36-8.36-9.1-5.23s6,23.66,5.5,26.2S213.9,369.17,210.77,371.46Z"/><path class="cls-4" d="M214.28,402.3c-6.34-9.5-6-29-3.51-30.84,2.2,7.29,8.46,19.28,14.85,25.72,3.54,2.71,4.87,3.84,9.95,3.84,5.56-.29,13.23-3.71,20.63-7l.46-.2c-.4,2.48-1.89,5.11-5,8.49C251.68,402.3,220.21,402.58,214.28,402.3Z"/><path class="cls-5" d="M234.52,401.07a12.58,12.58,0,0,0,1.47-3.56,14,14,0,0,0,.32-3.83,21.87,21.87,0,0,0-.57-3.83c-.29-1.26-.68-2.49-1.06-3.72-.79-2.47-1.68-4.92-2.27-7.47a22.23,22.23,0,0,1-.55-3.89,13.37,13.37,0,0,1,.38-3.89,11.15,11.15,0,0,1,.64-1.87l.2-.44.21-.44.48-.86a15.85,15.85,0,0,0,1.48-3.56A23.37,23.37,0,0,0,236,356a35.76,35.76,0,0,0-.42-3.87,37.64,37.64,0,0,0-.83-3.79,28.52,28.52,0,0,0-1.26-3.68c-.25-.6-.53-1.19-.83-1.76a6.72,6.72,0,0,0-1.11-1.58,0,0,0,0,1,0-.07h.06a8.41,8.41,0,0,1,1.14,1.59,14.91,14.91,0,0,1,.84,1.76,32.15,32.15,0,0,1,1.3,3.68,35.16,35.16,0,0,1,1.31,7.69,23.92,23.92,0,0,1-.76,7.76,15.87,15.87,0,0,1-1.49,3.62c-.15.29-.32.57-.46.85l-.22.43-.2.45a12.88,12.88,0,0,0-.62,1.81,13.65,13.65,0,0,0-.35,3.82,22,22,0,0,0,.56,3.82c.58,2.53,1.49,5,2.29,7.44.4,1.24.77,2.5,1.06,3.76a21.25,21.25,0,0,1,.57,3.88,13.79,13.79,0,0,1-.38,3.9,12.93,12.93,0,0,1-1.57,3.59.09.09,0,0,1-.11,0A.06.06,0,0,1,234.52,401.07Z"/><path class="cls-5" d="M213,375.7c1.16,2.68,2.36,5.34,3.67,8a68.68,68.68,0,0,0,4.34,7.6,30.41,30.41,0,0,0,5.69,6.59l.41.34.43.32.22.17.23.16.45.3a12.6,12.6,0,0,0,1.92,1,11.46,11.46,0,0,0,4.24,1,10.83,10.83,0,0,1-4.3-.83,12.15,12.15,0,0,1-2-1l-.46-.29-.23-.16-.23-.15-.45-.33a5,5,0,0,1-.43-.34,23.52,23.52,0,0,1-3.15-3.08,37.42,37.42,0,0,1-2.64-3.51c-.82-1.22-1.58-2.48-2.28-3.76s-1.39-2.57-2-3.89-1.23-2.65-1.8-4S213.5,377.07,213,375.7Z"/><path class="cls-5" d="M235,386.93a3.35,3.35,0,0,1-1.89-.42,6.05,6.05,0,0,1-1.5-1.2c-.23-.23-.42-.48-.62-.72s-.37-.51-.53-.77-.34-.53-.5-.8-.31-.54-.44-.84a57.08,57.08,0,0,1-2.79-7q-1.29-3.51-2.64-7l-1.31-3.51c-.43-1.17-.84-2.36-1.21-3.54.38,1.18.81,2.35,1.24,3.52s.9,2.33,1.36,3.5c.91,2.33,1.82,4.65,2.71,7a60.41,60.41,0,0,0,2.87,6.9,13.63,13.63,0,0,0,2.09,3.05,2.5,2.5,0,0,0,.33.32l.33.31c.13.09.25.19.37.26l.1.07.09.06.2.1a3,3,0,0,0,1.71.36.18.18,0,0,1,.2.15A.17.17,0,0,1,235,386.93Z"/><path class="cls-6" d="M235.93,354c.72-1.32,2.08-4.7,1.64-7.53"/><path class="cls-5" d="M232.37,377.81a5.42,5.42,0,0,0,1.77-.36l.43-.17.42-.18c.27-.12.54-.28.81-.42a19.69,19.69,0,0,0,3-2.15,29.33,29.33,0,0,0,2.62-2.61,33.49,33.49,0,0,0,2.3-2.89,34.58,34.58,0,0,0,2-3.14,28.32,28.32,0,0,0,1.57-3.35,20.46,20.46,0,0,0,1.51-7.19.07.07,0,0,1,.07-.08.07.07,0,0,1,.08.08,20.48,20.48,0,0,1-1.49,7.27,31.28,31.28,0,0,1-1.57,3.37,30.4,30.4,0,0,1-2,3.16,29.13,29.13,0,0,1-2.31,2.93,27.2,27.2,0,0,1-2.63,2.63,20,20,0,0,1-3,2.21c-.28.13-.54.3-.83.43l-.43.2-.45.17a6.4,6.4,0,0,1-1.85.37.12.12,0,0,1-.12-.13C232.23,377.85,232.29,377.81,232.37,377.81Z"/><path class="cls-7" d="M255.55,387.41a9.69,9.69,0,0,0-1.49,4.09c.07-2.15-.7-6.61-4.44-7.21-4.54-.72-8.46,2.41-7,7.55-1.18-1.38-3.94-2.82-6.5,1.45-2.65,4.44,1.25,7.86,3.53,9h12C257.43,396.05,257.68,392.29,255.55,387.41Z"/><path class="cls-4" d="M226.84,339.14c2.48.9,4.83,2.47,5.79,5.21,1.74,5-2.94,17.61-6.3,15.79a1.26,1.26,0,0,0,.63-.39c3.88-4.6,1.37-8.87-.75-12.47C224.22,343.89,222.57,341.08,226.84,339.14Z"/><path class="cls-4" d="M223.2,381c5.47,5.84,2-2.59-.77-9.39-.2-.48-.38-.94-.57-1.41-.4-1-.8-1.91-1.19-2.82-1.87-4.37-3.51-8.16-3-12.67-2.74,2.42.89,12,3.51,18.91,1.33,3.48,2.37,6.27,2.22,7.1C223.34,380.86,223.28,381,223.2,381Z"/><path class="cls-4" d="M243,351.56a26.62,26.62,0,0,1,0,2.68,20.94,20.94,0,0,1,8.41-6.16,4.26,4.26,0,0,0-2.49.06c-2.56.72-5.89,3.43-5.89,3.43Z"/><path class="cls-8" d="M262.68,402.35H242.33a8.68,8.68,0,0,1-1.4-.91c-1.71-1.39-3.33-3.78-1.57-6.72,2.16-3.62,4.5-2.4,5.5-1.23-1.25-4.36,2.06-7,5.9-6.39,3.16.51,3.82,4.28,3.76,6.1.28-1.91,1.43-5.44,3.9-4.21a5.3,5.3,0,0,1,2.45,6.43,3.85,3.85,0,0,1-1.53,1.78C264.9,397.2,263.88,400.64,262.68,402.35Z"/><path class="cls-5" d="M233.77,367.4a20.89,20.89,0,0,0,2.2-.71,14.39,14.39,0,0,0,2.1-1,8.87,8.87,0,0,0,1.85-1.37,4.53,4.53,0,0,0,1.18-1.94.08.08,0,0,1,.09-.06.08.08,0,0,1,.07.09,4.49,4.49,0,0,1-1.21,2,8.77,8.77,0,0,1-1.88,1.44,15.84,15.84,0,0,1-2.11,1,18.24,18.24,0,0,1-2.23.75.15.15,0,0,1-.17-.09A.15.15,0,0,1,233.77,367.4Z"/><path class="cls-5" d="M235.8,388.79a6.89,6.89,0,0,0,1.62-.15,7.7,7.7,0,0,0,1.56-.51,7.44,7.44,0,0,0,2.58-2,7.68,7.68,0,0,0,.91-1.36,7.21,7.21,0,0,0,.36-.74c0-.12.1-.24.15-.38l.14-.39a13.56,13.56,0,0,0,.68-3.23c0-.05,0-.08.07-.06s.08,0,.07.07a14.7,14.7,0,0,1-.67,3.28l-.14.4a3.53,3.53,0,0,1-.15.39c-.11.26-.23.51-.35.75a8.39,8.39,0,0,1-.93,1.41,7.66,7.66,0,0,1-2.65,2.06,8.15,8.15,0,0,1-1.6.54,7.29,7.29,0,0,1-1.69.17.14.14,0,0,1-.14-.14A.21.21,0,0,1,235.8,388.79Z"/><path class="cls-5" d="M226.13,397.44a9.91,9.91,0,0,0,.94-2.19,11.59,11.59,0,0,0,.55-2.31c0-.11,0-.19,0-.3l0-.29c0-.19.05-.4.06-.59a9.61,9.61,0,0,0,0-1.2l0-.29a2.81,2.81,0,0,0,0-.3l-.06-.59c0-.2-.06-.4-.09-.59l-.1-.59a.08.08,0,0,1,.06-.09.1.1,0,0,1,.09.06l.1.59c0,.2.07.4.09.61l.06.6c0,.11,0,.21,0,.3l0,.31c0,.4,0,.81,0,1.21,0,.2,0,.4,0,.6l0,.3c0,.1,0,.2,0,.29a13.44,13.44,0,0,1-.53,2.36,13,13,0,0,1-1,2.25.13.13,0,0,1-.17,0A.18.18,0,0,1,226.13,397.44Z"/><path class="cls-8" d="M216.93,402.35H196.58a.21.21,0,0,0-.06-.08c-1.19-1.74-2.08-5.07,3.41-5.07-2.55-1.57-2.32-5.31-.3-7.33a5.15,5.15,0,0,1,1.2-.88c2.47-1.23,3.62,2.3,3.9,4.21-.06-1.82.59-5.59,3.76-6.1,3.85-.62,7.15,2,5.9,6.39,1-1.17,3.34-2.39,5.5,1.23C222.15,398.5,218.86,401.38,216.93,402.35Z"/><path class="cls-9" d="M350.79,394.09H204.85v7.28H350.79Z"/><path class="cls-10" d="M349.51,183.09q-72.31-.26-144.63,0a.82.82,0,0,0,0,1.64q72.32-.24,144.63,0A.82.82,0,0,0,349.51,183.09Z"/><path class="cls-10" d="M349.51,197.14q-72.31-.19-144.63,0a.82.82,0,0,0,0,1.64q72.32-.19,144.63,0A.82.82,0,0,0,349.51,197.14Z"/><path class="cls-10" d="M349.51,211.19q-72.31-.13-144.63,0a.82.82,0,0,0,0,1.64q72.32-.14,144.63,0A.82.82,0,0,0,349.51,211.19Z"/><path class="cls-10" d="M349.51,225.23q-72.31-.06-144.63,0a.83.83,0,0,0,0,1.65q72.32-.07,144.63,0A.83.83,0,0,0,349.51,225.23Z"/><path class="cls-10" d="M349.51,239.28H204.88a.82.82,0,0,0,0,1.64H349.51A.82.82,0,0,0,349.51,239.28Z"/></g><path class="cls-11" d="M295.15,223.19h52.41s-6.21-7.84-13.1-7.84-6.21,7.84-11,3.93-11.72,5.49-17.24,1.57S295.15,223.19,295.15,223.19Z"/><path class="cls-11" d="M256,260H203.57s6.2-7.84,13.09-7.84,6.21,7.84,11,3.93,11.72,5.49,17.24,1.56S256,260,256,260Z"/><path class="cls-12" d="M312,379.51v-1.12a19.55,19.55,0,0,1,8.45-4.52c4.69-.94,6.57-1.88,7.51-1.88s.89,2.15-3.31,4.83S312,379.51,312,379.51Z"/><path class="cls-13" d="M332.83,395.47h-13.5c-1.45,0-2.2-1.19-1.65-2.66L328,365a4.22,4.22,0,0,1,3.62-2.66h13.5c1.44,0,2.2,1.19,1.65,2.66l-10.27,27.81A4.21,4.21,0,0,1,332.83,395.47Z"/><path class="cls-14" d="M333.77,395.47h-13.5c-1.45,0-2.2-1.19-1.65-2.66L328.89,365a4.21,4.21,0,0,1,3.61-2.66H346c1.44,0,2.19,1.19,1.65,2.66l-10.27,27.81A4.21,4.21,0,0,1,333.77,395.47Z"/><path class="cls-12" d="M311.06,378.57s12.21-3.76,19.72-3.76,10.33,0,10.33.94S328,378.57,328,378.57s11.27-1.88,14.08.94-.93,3.75-.93,3.75-1.88,3.76-1.88,5.64-9.21,1.17-15,0S312.94,387,312.94,387Z"/><path class="cls-15" d="M336.41,374.81a1.88,1.88,0,1,0-1.88-1.88A1.88,1.88,0,0,0,336.41,374.81Z"/><path class="cls-16" d="M330.19,370.88l-.46-.16a1,1,0,0,1-.57-1.2l1.35-3.8a1,1,0,0,1,1.21-.57l.46.16a1,1,0,0,1,.57,1.2l-1.35,3.79A1,1,0,0,1,330.19,370.88Z"/><path class="cls-11" d="M382,364.77a24.39,24.39,0,1,0-24.38-24.39A24.39,24.39,0,0,0,382,364.77Z"/><path class="cls-17" d="M383.8,325a25,25,0,0,1,15.12,6.12,1.87,1.87,0,0,1-1.34,3.38,2.52,2.52,0,0,1-1.08-.52c-8.84-7-19.86-7-28.68,0a1.86,1.86,0,0,1-2.83-.2,1.82,1.82,0,0,1,.47-2.72C370.05,327.15,376,325,383.8,325Z"/><path class="cls-17" d="M382.17,332.42a18.49,18.49,0,0,1,11.27,3.88c1.08.83,1.3,1.86.59,2.77s-1.74,1-2.84.14a14.74,14.74,0,0,0-18.13,0c-1.09.81-2.13.74-2.83-.19s-.45-1.89.58-2.71l.15-.11A18.5,18.5,0,0,1,382.17,332.42Z"/><path class="cls-17" d="M382,339.8a11.07,11.07,0,0,1,6.11,1.74,1.84,1.84,0,0,1,.79,2.59,1.87,1.87,0,0,1-2.7.59,7.4,7.4,0,0,0-8.15,0,1.82,1.82,0,0,1-2.63-.55,1.79,1.79,0,0,1,.69-2.6A11,11,0,0,1,382,339.8Z"/><path class="cls-17" d="M382.15,354.61a3.71,3.71,0,1,1,3.74-3.71A3.72,3.72,0,0,1,382.15,354.61Z"/><path class="cls-10" d="M447.21,403.92h-369v4.38h369Z"/><path class="cls-11" d="M447.21,408.31h-369v6.13h369Z"/><path class="cls-18" d="M132.84,408h-55V650h55Z"/><path class="cls-10" d="M132.84,408h-22V650h22Z"/><path class="cls-19" d="M94,408.31H448.15"/><path class="cls-19" d="M111.06,408.31v51.48"/><path class="cls-10" d="M1106,395.94l-.3.89-5.16,15.48a2.11,2.11,0,0,0,2,2.78h46.31v-2.73h-25.54l5.48-16.41H1106Z"/><path class="cls-18" d="M1108.78,395.94l-.3.89-5.15,15.47a2.11,2.11,0,0,0,2,2.79h46.31v-2.73h-25.54l5.47-16.41h-22.8Z"/><path class="cls-10" d="M1110.64,405.55c6.09-.93,12.44-2.36,18.65-2.72l2.3-6.9h-22.8l-.3.89-3.16,9.5C1107.09,406.07,1108.87,405.83,1110.64,405.55Z"/><path class="cls-10" d="M1177.44,399.58h-110a6.82,6.82,0,0,1-6.65-6.11l-5.48-64.1a5.55,5.55,0,0,1,5.61-6.11h110a6.83,6.83,0,0,1,6.66,6.11l5.48,64.1A5.54,5.54,0,0,1,1177.44,399.58Z"/><path class="cls-20" d="M1166.7,357.18v-6.39c0-2.73,0-7.29.91-8.2s-2.73-2.74-3.65,2.73a61.18,61.18,0,0,1-1.83,8.2Z"/><path class="cls-18" d="M1179.26,399.58h-110a6.83,6.83,0,0,1-6.66-6.11l-5.48-64.1a5.55,5.55,0,0,1,5.61-6.11h110a6.82,6.82,0,0,1,6.65,6.11l5.48,64.1A5.54,5.54,0,0,1,1179.26,399.58Z"/><path class="cls-11" d="M1065.23,386.61h115.88l-4.75-55.56a6.47,6.47,0,0,0-6.31-5.8H1065.8a5.26,5.26,0,0,0-5.31,5.8Z"/><path class="cls-21" d="M1092.29,380.24h64.9a4.59,4.59,0,0,0,4.56-5l-2.61-30.55a4.13,4.13,0,0,0-4-3.7h-66.65a3.35,3.35,0,0,0-3.4,3.7l2.68,31.33A4.57,4.57,0,0,0,1092.29,380.24Z"/><path class="cls-22" d="M1160.4,359.45a1.8,1.8,0,0,1-1.8-1.19c-.79-1.84-1.87-7.2-4.79-6.06-2,.77-2.39,6.27-3.51,8.08-2,3.29-7.45,6-10.88,3-3.92-3.38-2.47-17.26-11.61-12.48-5.59,2.92-6.74,10.31-9.28,15.52-1.69,3.47-5.16,7.15-9.17,4.2-1.66-1.23-1.79-4-4.07-4.09-1.56-.1-3.52,1.5-4.94,2.07-3.07,1.26-6,1.18-8-1.82-1.36-2.07-1.16-5.08-3.44-6.23a4.89,4.89,0,0,0-2.56-.57l1.38,16.17a4.59,4.59,0,0,0,4.56,4.19h64.9a4.59,4.59,0,0,0,4.56-5Z"/><path class="cls-23" d="M1120.83,360.67c-1.2,3.16-2.66,8.91-6.07,10.43-4.27,1.91-5.41-2.83-8.59-3.8-3.78-1.16-7.6,3.16-11.79,1.44-4-1.67-2.64-8.66-7.06-8.82"/><path class="cls-24" d="M1158.52,356.37a6.19,6.19,0,0,0-3-3.59c-2.22-1.07-2.34,0-3,1.9-1,2.84-2.26,6.1-4.72,8a7.32,7.32,0,0,1-8.47.07c-2.74-1.89-3.12-6.1-4-9-1.16-3.95-3.56-5.5-7.23-3s-5.74,5.91-7.28,10"/><path class="cls-25" d="M1066.17,386.61h19.16l-4.75-55.56a6.46,6.46,0,0,0-6.31-5.8h-7.53a5.26,5.26,0,0,0-5.31,5.8Z"/><path class="cls-26" d="M1166.85,356h11.65l-2.13-24.94a6.47,6.47,0,0,0-6.31-5.8h0a5.25,5.25,0,0,0-5.31,5.8Z"/><path class="cls-10" d="M1167.24,360.6l2.22,26h11.65l-2.22-26Z"/><path class="cls-27" d="M1061.1,338.17H1177l-.61-7.12a6.47,6.47,0,0,0-6.31-5.8H1065.81a5.26,5.26,0,0,0-5.31,5.8Z"/><path class="cls-28" d="M1179.39,329.38a6.81,6.81,0,0,0-6.65-6.11h-63.87l3.44,30.51a4.82,4.82,0,0,0,4.63,4.26l64.34-10Z"/><path class="cls-15" d="M1062.21,388.26l.45,5.22a6.82,6.82,0,0,0,6.66,6.11h110a5.55,5.55,0,0,0,5.61-6.11l-.45-5.22Z"/><path class="cls-29" d="M1208.46,334.05l-86,.33a5.46,5.46,0,0,1-5.35-4.61l-5.86-48.57a4.11,4.11,0,0,1,4.23-4.65l86-.33a5.45,5.45,0,0,1,5.35,4.61l5.86,48.57A4.12,4.12,0,0,1,1208.46,334.05Z"/><path class="cls-18" d="M1200.45,329c1.85-2.59,1-6.37-1.9-8.44s-6.76-1.64-8.61,1-1,6.37,1.9,8.44S1198.6,331.55,1200.45,329Z"/><path class="cls-11" d="M1208.19,329c1.86-2.6,1-6.38-1.9-8.45s-6.75-1.64-8.6,1-1,6.38,1.9,8.44S1206.34,331.55,1208.19,329Z"/><path class="cls-11" d="M1120.37,308.31a2.6,2.6,0,0,1-.19,1.57,1.16,1.16,0,0,1-1.08.51,1.46,1.46,0,0,1-1.18-.5,2.81,2.81,0,0,1-.54-1.5l-.08-.8a2.54,2.54,0,0,1,.19-1.55,1.16,1.16,0,0,1,1.08-.5,1.48,1.48,0,0,1,1.19.49,2.83,2.83,0,0,1,.53,1.5Zm-.69-.82a2.39,2.39,0,0,0-.33-1.11.85.85,0,0,0-.72-.35.63.63,0,0,0-.64.35,2,2,0,0,0-.11,1.06l.11,1a2.44,2.44,0,0,0,.34,1.14.86.86,0,0,0,.72.36.62.62,0,0,0,.62-.34,2,2,0,0,0,.12-1.09Zm4.45.82a2.59,2.59,0,0,1-.2,1.57,1.14,1.14,0,0,1-1.07.51,1.46,1.46,0,0,1-1.18-.5,2.81,2.81,0,0,1-.54-1.5l-.09-.8a2.46,2.46,0,0,1,.2-1.55,1.14,1.14,0,0,1,1.08-.5,1.46,1.46,0,0,1,1.18.49,2.75,2.75,0,0,1,.53,1.5Zm-.7-.82a2.28,2.28,0,0,0-.33-1.11.85.85,0,0,0-.72-.35.64.64,0,0,0-.64.35,2,2,0,0,0-.1,1.06l.1,1a2.57,2.57,0,0,0,.34,1.14.86.86,0,0,0,.72.36.65.65,0,0,0,.63-.34,2,2,0,0,0,.11-1.09Zm4.45.82a2.6,2.6,0,0,1-.19,1.57,1.17,1.17,0,0,1-1.08.51,1.46,1.46,0,0,1-1.18-.5,2.81,2.81,0,0,1-.54-1.5l-.09-.8a2.53,2.53,0,0,1,.2-1.55,1.15,1.15,0,0,1,1.08-.5,1.44,1.44,0,0,1,1.18.49,2.75,2.75,0,0,1,.54,1.5Zm-.69-.82a2.38,2.38,0,0,0-.34-1.11.82.82,0,0,0-.72-.35.63.63,0,0,0-.63.35,1.93,1.93,0,0,0-.11,1.06l.11,1a2.33,2.33,0,0,0,.34,1.14.84.84,0,0,0,.72.36.63.63,0,0,0,.62-.34,2,2,0,0,0,.11-1.09Zm4.45.82a2.59,2.59,0,0,1-.2,1.57,1.15,1.15,0,0,1-1.08.51,1.48,1.48,0,0,1-1.18-.5,2.81,2.81,0,0,1-.54-1.5l-.08-.8a2.54,2.54,0,0,1,.19-1.55,1.17,1.17,0,0,1,1.09-.5,1.46,1.46,0,0,1,1.18.49,2.83,2.83,0,0,1,.53,1.5Zm-.7-.82a2.28,2.28,0,0,0-.33-1.11.85.85,0,0,0-.72-.35.64.64,0,0,0-.64.35,2,2,0,0,0-.1,1.06l.1,1a2.44,2.44,0,0,0,.34,1.14.86.86,0,0,0,.72.36.65.65,0,0,0,.63-.34,2,2,0,0,0,.11-1.09Zm6.11.82a2.59,2.59,0,0,1-.2,1.57,1.14,1.14,0,0,1-1.07.51,1.46,1.46,0,0,1-1.18-.5,2.81,2.81,0,0,1-.54-1.5l-.09-.8a2.53,2.53,0,0,1,.2-1.55,1.14,1.14,0,0,1,1.08-.5,1.46,1.46,0,0,1,1.18.49,2.75,2.75,0,0,1,.53,1.5Zm-.69-.82a2.38,2.38,0,0,0-.34-1.11.85.85,0,0,0-.72-.35.64.64,0,0,0-.64.35,2,2,0,0,0-.1,1.06l.1,1a2.43,2.43,0,0,0,.35,1.14.83.83,0,0,0,.71.36.65.65,0,0,0,.63-.34,2,2,0,0,0,.11-1.09Zm4.44.82a2.6,2.6,0,0,1-.19,1.57,1.17,1.17,0,0,1-1.08.51,1.46,1.46,0,0,1-1.18-.5,2.81,2.81,0,0,1-.54-1.5l-.09-.8a2.61,2.61,0,0,1,.2-1.55,1.16,1.16,0,0,1,1.08-.5,1.44,1.44,0,0,1,1.18.49,2.75,2.75,0,0,1,.54,1.5Zm-.69-.82a2.27,2.27,0,0,0-.34-1.11.82.82,0,0,0-.71-.35.63.63,0,0,0-.64.35,2,2,0,0,0-.11,1.06l.11,1a2.44,2.44,0,0,0,.34,1.14.86.86,0,0,0,.72.36.63.63,0,0,0,.62-.34,2.1,2.1,0,0,0,.12-1.09Zm4.45.82a2.59,2.59,0,0,1-.2,1.57,1.15,1.15,0,0,1-1.08.51,1.48,1.48,0,0,1-1.18-.5,2.81,2.81,0,0,1-.54-1.5l-.08-.8a2.54,2.54,0,0,1,.19-1.55,1.17,1.17,0,0,1,1.09-.5,1.46,1.46,0,0,1,1.18.49,2.83,2.83,0,0,1,.53,1.5Zm-.7-.82a2.28,2.28,0,0,0-.33-1.11.85.85,0,0,0-.72-.35.64.64,0,0,0-.64.35,2,2,0,0,0-.1,1.06l.1,1a2.57,2.57,0,0,0,.34,1.14.86.86,0,0,0,.72.36.65.65,0,0,0,.63-.34,2,2,0,0,0,.11-1.09Zm4.45.82a2.6,2.6,0,0,1-.19,1.57,1.17,1.17,0,0,1-1.08.51,1.46,1.46,0,0,1-1.18-.5,2.81,2.81,0,0,1-.54-1.5l-.09-.8a2.53,2.53,0,0,1,.2-1.55,1.14,1.14,0,0,1,1.08-.5,1.44,1.44,0,0,1,1.18.49,2.75,2.75,0,0,1,.54,1.5Zm-.69-.82a2.38,2.38,0,0,0-.34-1.11.85.85,0,0,0-.72-.35.64.64,0,0,0-.64.35,2,2,0,0,0-.1,1.06l.1,1a2.43,2.43,0,0,0,.35,1.14.83.83,0,0,0,.72.36.64.64,0,0,0,.62-.34,2,2,0,0,0,.11-1.09Zm6.1.82a2.6,2.6,0,0,1-.19,1.57,1.17,1.17,0,0,1-1.08.51,1.46,1.46,0,0,1-1.18-.5,2.81,2.81,0,0,1-.54-1.5l-.08-.8a2.54,2.54,0,0,1,.19-1.55,1.16,1.16,0,0,1,1.08-.5,1.44,1.44,0,0,1,1.18.49,2.75,2.75,0,0,1,.54,1.5Zm-.69-.82a2.39,2.39,0,0,0-.33-1.11.85.85,0,0,0-.72-.35.63.63,0,0,0-.64.35,2,2,0,0,0-.11,1.06l.11,1a2.44,2.44,0,0,0,.34,1.14.86.86,0,0,0,.72.36.62.62,0,0,0,.62-.34,2,2,0,0,0,.12-1.09Zm4.45.82a2.59,2.59,0,0,1-.2,1.57,1.14,1.14,0,0,1-1.07.51,1.46,1.46,0,0,1-1.18-.5,2.81,2.81,0,0,1-.54-1.5l-.09-.8a2.46,2.46,0,0,1,.2-1.55,1.14,1.14,0,0,1,1.08-.5,1.46,1.46,0,0,1,1.18.49,2.75,2.75,0,0,1,.53,1.5Zm-.7-.82a2.28,2.28,0,0,0-.33-1.11.85.85,0,0,0-.72-.35.64.64,0,0,0-.64.35,2,2,0,0,0-.1,1.06l.1,1a2.57,2.57,0,0,0,.34,1.14.86.86,0,0,0,.72.36.65.65,0,0,0,.63-.34,2,2,0,0,0,.11-1.09Zm4.45.82a2.6,2.6,0,0,1-.19,1.57,1.17,1.17,0,0,1-1.08.51,1.46,1.46,0,0,1-1.18-.5,2.81,2.81,0,0,1-.54-1.5l-.09-.8a2.53,2.53,0,0,1,.2-1.55,1.15,1.15,0,0,1,1.08-.5,1.44,1.44,0,0,1,1.18.49,2.75,2.75,0,0,1,.54,1.5Zm-.69-.82a2.38,2.38,0,0,0-.34-1.11.82.82,0,0,0-.72-.35.63.63,0,0,0-.63.35,1.93,1.93,0,0,0-.11,1.06l.11,1a2.33,2.33,0,0,0,.34,1.14.84.84,0,0,0,.72.36.63.63,0,0,0,.62-.34,2,2,0,0,0,.11-1.09Zm4.45.82a2.59,2.59,0,0,1-.2,1.57,1.15,1.15,0,0,1-1.08.51,1.48,1.48,0,0,1-1.18-.5,2.81,2.81,0,0,1-.54-1.5l-.08-.8a2.54,2.54,0,0,1,.19-1.55,1.17,1.17,0,0,1,1.09-.5,1.46,1.46,0,0,1,1.18.49,2.83,2.83,0,0,1,.53,1.5Zm-.7-.82a2.28,2.28,0,0,0-.33-1.11.85.85,0,0,0-.72-.35.64.64,0,0,0-.64.35,2,2,0,0,0-.1,1.06l.1,1a2.44,2.44,0,0,0,.34,1.14.86.86,0,0,0,.72.36.65.65,0,0,0,.63-.34,2,2,0,0,0,.11-1.09Zm-43.06,8.77a2.57,2.57,0,0,1-.2,1.57,1.15,1.15,0,0,1-1.07.52,1.46,1.46,0,0,1-1.18-.5,2.88,2.88,0,0,1-.54-1.5l-.09-.81a2.48,2.48,0,0,1,.2-1.54,1.15,1.15,0,0,1,1.08-.51,1.46,1.46,0,0,1,1.18.49,2.79,2.79,0,0,1,.53,1.51Zm-.69-.82a2.38,2.38,0,0,0-.34-1.11.85.85,0,0,0-.72-.35.66.66,0,0,0-.64.35,2.09,2.09,0,0,0-.1,1.07l.1,1a2.39,2.39,0,0,0,.35,1.13.83.83,0,0,0,.71.36.65.65,0,0,0,.63-.34,2,2,0,0,0,.11-1.08Zm4.44.82a2.58,2.58,0,0,1-.19,1.57,1.17,1.17,0,0,1-1.08.52,1.46,1.46,0,0,1-1.18-.5,2.88,2.88,0,0,1-.54-1.5l-.09-.81a2.56,2.56,0,0,1,.2-1.54,1.17,1.17,0,0,1,1.08-.51,1.44,1.44,0,0,1,1.18.49,2.78,2.78,0,0,1,.54,1.51Zm-.69-.82a2.39,2.39,0,0,0-.33-1.11.85.85,0,0,0-.72-.35.65.65,0,0,0-.64.35,2.07,2.07,0,0,0-.11,1.07l.11,1a2.4,2.4,0,0,0,.34,1.13.86.86,0,0,0,.72.36.63.63,0,0,0,.62-.34,2.08,2.08,0,0,0,.12-1.08Zm4.45.82a2.57,2.57,0,0,1-.2,1.57,1.15,1.15,0,0,1-1.08.52,1.48,1.48,0,0,1-1.18-.5,3,3,0,0,1-.53-1.5l-.09-.81a2.5,2.5,0,0,1,.19-1.54,1.17,1.17,0,0,1,1.09-.51,1.46,1.46,0,0,1,1.18.49,2.79,2.79,0,0,1,.53,1.51Zm-.7-.82a2.28,2.28,0,0,0-.33-1.11.85.85,0,0,0-.72-.35.66.66,0,0,0-.64.35,2,2,0,0,0-.1,1.07l.1,1a2.52,2.52,0,0,0,.34,1.13.86.86,0,0,0,.72.36.65.65,0,0,0,.63-.34,2,2,0,0,0,.11-1.08Zm4.45.82a2.58,2.58,0,0,1-.19,1.57,1.17,1.17,0,0,1-1.08.52,1.46,1.46,0,0,1-1.18-.5,2.88,2.88,0,0,1-.54-1.5l-.09-.81a2.48,2.48,0,0,1,.2-1.54,1.15,1.15,0,0,1,1.08-.51,1.44,1.44,0,0,1,1.18.49,2.78,2.78,0,0,1,.54,1.51Zm-.69-.82a2.38,2.38,0,0,0-.34-1.11.85.85,0,0,0-.72-.35.63.63,0,0,0-.63.35,2,2,0,0,0-.11,1.07l.1,1a2.39,2.39,0,0,0,.35,1.13.83.83,0,0,0,.72.36.64.64,0,0,0,.62-.34,2,2,0,0,0,.11-1.08Z"/><path class="cls-11" d="M1138,286.18h-20.26a1.53,1.53,0,0,1-1.49-1.3l-.39-3.63A1.17,1.17,0,0,1,1117,280h20.27a1.53,1.53,0,0,1,1.49,1.3l.39,3.63A1.19,1.19,0,0,1,1138,286.18Z"/><path class="cls-10" d="M1151.19,412.81h-48.34v-.91h48.34l.68.69Z"/><path class="cls-19" d="M1063.65,341.48h17.84"/><path class="cls-19" d="M1066,348.05h17.84"/><path class="cls-19" d="M1066,354.62h17.84"/><path class="cls-19" d="M1067.88,362.14h17.84"/><path class="cls-19" d="M1067.88,368.71h17.84"/><path class="cls-10" d="M1094.17,354.15a5.63,5.63,0,1,0-5.63-5.63A5.63,5.63,0,0,0,1094.17,354.15Z"/><path class="cls-30" d="M1094.17,350.4c.76,1.67,3.48.42,3.91,2.18a5.65,5.65,0,0,0-3.31-9.67c0,.75,0,1.48,0,2.22,0,.4-.53,4.89-.59,5.27C1093.86,349.71,1094.92,350.45,1094.17,350.4Z"/><path class="cls-27" d="M1095.3,348.81a2.81,2.81,0,0,1-.23-.73c-.56.21-4,1.27-4.54,1.37s-1.23.22-1.85.34a5.61,5.61,0,0,0,5,4.34C1093.41,352.63,1095.92,350.18,1095.3,348.81Z"/><path class="cls-11" d="M1094.17,352.28a3.76,3.76,0,1,0-3.76-3.76A3.76,3.76,0,0,0,1094.17,352.28Z"/><path class="cls-10" d="M1108.26,354.15a5.63,5.63,0,1,0-5.64-5.63A5.63,5.63,0,0,0,1108.26,354.15Z"/><path class="cls-30" d="M1106.4,348.75c-1.57,1,0,3.51-1.68,4.15a5.62,5.62,0,0,0,9.17-4.47c-.73.1-1.47.19-2.2.26-.4,0-4.92.07-5.29.06C1107,348.36,1106.43,349.51,1106.4,348.75Z"/><path class="cls-27" d="M1108.11,349.68a2.48,2.48,0,0,1,.71-.31c-.27-.54-1.76-3.8-1.92-4.34s-.37-1.2-.56-1.8a5.63,5.63,0,0,0-3.69,5.55C1104.09,348.28,1106.83,350.46,1108.11,349.68Z"/><path class="cls-11" d="M1108.26,352.28a3.76,3.76,0,1,0-3.76-3.76A3.76,3.76,0,0,0,1108.26,352.28Z"/><path class="cls-31" d="M1062.65,367.66h-40.1a2.5,2.5,0,0,1-2.43-2.23l-2-23.38a2,2,0,0,1,2-2.22h40.1a2.49,2.49,0,0,1,2.43,2.22l2,23.38A2,2,0,0,1,1062.65,367.66Z"/><path class="cls-32" d="M1065.47,363h-40.11a2.47,2.47,0,0,1-2.42-2.22l-2-23.38a2,2,0,0,1,2-2.23h40.1a2.48,2.48,0,0,1,2.42,2.23l2,23.38A2,2,0,0,1,1065.47,363Z"/><path class="cls-33" d="M1034.08,348.88l8.21,6.57,11.5-14.79"/><path class="cls-34" d="M255.74,596.43s7.11-.34,10.47,2.7-8.87-.83-8.87-.83,6.39,2.35,7.27,5.72,6.07,4.39,6.07,4.39"/><path class="cls-34" d="M319.32,635.39s1.74-5,6.89-5.21-5.77,5.21-5.77,5.21,1.85-1,6.73-.93,4.16,3.1-1.11,2.33S319.32,635.39,319.32,635.39Z"/><path class="cls-35" d="M1237,319.83s-.07,5.42-2.46,8.88,5.77,2.71,5.77,2.71"/><path class="cls-27" d="M1247.8,650.09h25.71V418.89H1247.8Z"/><path class="cls-18" d="M1174.92,650.87h72V417.36h-72Z"/><path class="cls-27" d="M1147.85,419.2H1011.64V651.34h136.21Z"/><path class="cls-10" d="M1286.63,415.09H1007.54v4.57h279.09Z"/><path class="cls-10" d="M1291,554.49l-.17,3.1s-1,1.19,2.68-.53,4.7-1.9,7.44-3.43,2.38-3.48,2.38-3.48l-5.26-1-4.34,3.85"/><path class="cls-36" d="M1300.06,546.2l13.86,17.13-14.64.22-10.21-11.23Z"/><path class="cls-37" d="M1262.31,450.41c-11,8.47-58.92,34.06-59.69,51.43-.74,16.52,81.85,50.69,88.06,55.78a7.73,7.73,0,0,0,2.22-1.12c1.14-.86,1.95-2.15,3-3.1a17.27,17.27,0,0,1,7.71-3.77l.08-.07s-13.18-14.86-26.64-25.85c-19.14-15.62-38.61-19.54-38.61-19.54s59.51-33.46,61.75-38C1317.33,431.58,1273.2,442,1262.31,450.41Z"/><path class="cls-37" d="M1262.31,450.41c-11,8.47-58.92,34.06-59.69,51.43-.1,2.4,1.56,5.19,4.5,8.19a172.65,172.65,0,0,1,21.38-15.66c9.68-5.9,20.08-10.22,30.77-13.91,9.37-3.23,19-5.58,28.85-5.47,6.69-4.23,11.51-7.6,12.12-8.84C1317.33,431.58,1273.2,442,1262.31,450.41Z"/><path class="cls-38" d="M1309.64,554.77s-1.83,5.76-6.89,6a30.75,30.75,0,0,0-7.18,1s.14,6.05-3.37,9.57-11.53,10.41-11.25,15.47a6,6,0,0,0,2.22,4.72,4.82,4.82,0,0,0,2,.91L1317.53,570s-.15-6.05-2.68-9.43A44.13,44.13,0,0,0,1309.64,554.77Z"/><path class="cls-19" d="M1295.72,574.88l-5.2-1.88"/><path class="cls-19" d="M1298.25,571.23l-5.19-1.88"/><path class="cls-27" d="M1312.17,558.14a14.64,14.64,0,0,0-3.93,13.5l7.88-5.91A30.69,30.69,0,0,0,1312.17,558.14Z"/><path class="cls-39" d="M1283.35,591.21,1317,565.86"/><path class="cls-27" d="M1284.76,553.64l7,4.76s.61-2.14,6.11-5.2,6.46-3.25,6.46-3.25l-4.77-9.22A29,29,0,0,1,1284.76,553.64Z"/><path class="cls-20" d="M1265,333.59s-10.94,13.93-19.9,10.94c-6.7-2.24-8.26-20-8.95-24.86-1-7-1-12.93,3-18.91s22.87-5,29.84,8S1265,333.59,1265,333.59Z"/><path class="cls-40" d="M1254.66,339c-4.28,2.11-9.59,4.08-14.37,2.61a11.13,11.13,0,0,0,4.83,3c9,3,19.9-10.94,19.9-10.94l.15-.17C1261.67,335.47,1258.07,337.29,1254.66,339Z"/><path class="cls-20" d="M1324.53,431.13a7,7,0,0,1-9.26-1.67c-8.06-10.08-34.33-43.46-38.56-55.92-5-14.75,12.15-23.37,22.66-7.38s27.18,44.39,28.31,56.27C1328.14,427.26,1326.57,429.81,1324.53,431.13Z"/><g class="cls-41"><path class="cls-42" d="M1310.08,420.7c-.08-3-.34-6.35.59-9.26.85-2.66,2.75-4.22,4.8-6a18.16,18.16,0,0,0,4-5,379.83,379.83,0,0,0-20.06-34.3c-10.51-16-27.68-7.37-22.66,7.38,3.56,10.47,22.67,35.7,33.46,49.48C1310.14,422.25,1310.1,421.48,1310.08,420.7Z"/></g><path class="cls-43" d="M1274.81,374.34c2.77,7.28,13.09,21.22,23.2,33.91,4.53-.65,8.88-1.68,12.6-4.72,2.8-2.3,7.39-6.61,9.35-9.7-6.21-10.61-15.26-21.4-20.91-29.36C1287.33,348,1268.94,358.94,1274.81,374.34Z"/><path class="cls-19" d="M1317.1,389.12s-8.95,13.46-20.62,17.22"/><path class="cls-44" d="M1300.54,384.35a41.32,41.32,0,0,0-15.85-28.82c-7,1.09-12.21,8.41-9.1,17.55,2.51,7.37,12.32,21.68,22,34.73a38.24,38.24,0,0,0,6.55-1.21C1301.07,399.81,1301.13,391.78,1300.54,384.35Z"/><path class="cls-20" d="M1271.67,415.69a5,5,0,0,0-2.86,9.37,43.49,43.49,0,0,0,10,4.18c10.89,3.17,41.23,8.79,47.17,2s-4.82-12.86-11.87-13.36-33.31-1.4-42.17-2.15Z"/><path class="cls-20" d="M1274.24,425.29s-9.77,4.53-15,3.63-6-3.64-6-3.64-2.87-2.92-3.2-4.29a14.33,14.33,0,0,1-.14-3.59s-10.24-.42-11.41-2.31,9-1.45,14-1.93,6.51-3,9.57-2.31,6.53,5,11.1,5S1280.23,423.12,1274.24,425.29Z"/><path class="cls-20" d="M1249.83,413.34s6.77-1.16,12.05-.27Z"/><path class="cls-10" d="M1290.88,440l.4.54,12.53,13.39s4,10.94-1,15.91-58.42,20.94-71.35,8S1249.89,442,1249.89,442Z"/><path class="cls-18" d="M1209.36,566.88l-1.23,2.84s-1.39.76,2.69.44,5.07-.15,8.18-.64,3.44-2.44,3.44-2.44l-4.58-2.79-5.4,2.11"/><path class="cls-18" d="M1220.73,562.24l7.07,20.87L1214,578.26l-5.69-14.08Z"/><path class="cls-45" d="M1241.74,447.08c-13.25,4.15-67.07,11.56-73.81,27.57-6.42,15.25,36,88.13,40,95.05a7.64,7.64,0,0,0,2.47-.29c1.37-.41,2.58-1.34,3.93-1.85a17.37,17.37,0,0,1,8.54-.88l.1,0a195.81,195.81,0,0,0-5.18-29.11c-4.21-16.86-17.07-48.28-17.07-48.28l63.4-6.13,1.21-.11C1300.89,463.81,1255,442.94,1241.74,447.08Z"/><path class="cls-18" d="M1203.8,563.93l4.89,6.87s1.31-1.79,7.53-2.76,7.19-.79,7.19-.79l-1.28-10.31A29.17,29.17,0,0,1,1203.8,563.93Z"/><path class="cls-18" d="M1209.36,566.88l-1.23,2.84s-1.39.76,2.69.44,5.07-.15,8.18-.64,3.44-2.44,3.44-2.44l-4.58-2.79-5.4,2.11"/><path class="cls-11" d="M1220.73,562.24l7.07,20.87-13.21.92-6.3-19.85Z"/><path class="cls-46" d="M1246.18,443.85c-1.29.66-3,1.43-5,2.3,4,2.48,5,5.41,7.15,9.35,4.26,7.85,13.5,12.5,17,16.32h12.29l1.29-.38C1313.71,445.5,1259.75,437,1246.18,443.85Z"/><path class="cls-47" d="M1203.8,563.93l4.89,6.87s1.31-1.79,7.53-2.76,7.19-.79,7.19-.79l-1.28-10.31A29.17,29.17,0,0,1,1203.8,563.93Z"/><path class="cls-20" d="M1254.07,330.6l-3,35.81,25.86-7s-2-8.95-4-22.87l-2-13.93Z"/><path class="cls-48" d="M1262.87,348.46a48.38,48.38,0,0,1-10.48,2.4l-1.3,15.56,25.86-7s-1.27-5.69-2.78-15C1270.43,345.84,1266.66,347.23,1262.87,348.46Z"/><path class="cls-49" d="M1273,332.59l-12.93,1s-3-8.95-6-10.94-3,6-3,6h-2s0-9.94-1-9.94-8-1-8-4a35.32,35.32,0,0,0-1-7s-14.63,2-9.24-12.71c3.15-8.61,12.8-4.32,12.8-4.32a17,17,0,0,1,13.35-1.87c8,2,9,5,9,5a7.77,7.77,0,0,1,7,2c3,3,1,7.95,1,7.95s5-2,6,2S1273,325.64,1273,332.59Z"/><path class="cls-20" d="M1253.89,332.79s7.15-5.16,7.15-9.14-9-5-9,0A25.72,25.72,0,0,0,1253.89,332.79Z"/><path class="cls-50" d="M1280.92,352.49s-25.86-2-37.79,3-19.9,13.92-10.94,30.83,13.93,21.88,13.93,34.81a31.39,31.39,0,0,1-8,20.88s6,4,22.88,18.91,46.75,0,46.75,0-4-48.74-5-68.63-1-26.86-8-32.83A30.21,30.21,0,0,0,1280.92,352.49Z"/><path class="cls-20" d="M1165.43,349.27a5,5,0,0,0-9.47,2.45,43.32,43.32,0,0,0,1.64,10.72c3,10.93,14,39.76,22.92,41.26s8.45-10.81,5.2-17.09-16.19-29.14-20.16-37.1C1165.51,349.43,1165.47,349.35,1165.43,349.27Z"/><path class="cls-51" d="M1177.76,392.53a26.26,26.26,0,0,0,9.8,6.09,19.86,19.86,0,0,0-1.86-12c-.66-1.28-1.74-3.27-3.06-5.68-3.6-.47-7.38-.32-10.77-1.46C1172.58,384.3,1174.17,388.89,1177.76,392.53Z"/><path class="cls-20" d="M1166.12,350.61c-2-3.21-4-6.34-5.33-9a33.93,33.93,0,0,0-5.59-10c-4-5-9-7.48-11-7.48a2,2,0,0,0-2,2s-2.83-.55-2.41,1.71c.2,1.1-2.28.14-1.47,1.9-.06-.05,6.38,10.83,11.83,16.28a69.67,69.67,0,0,1,8.46,10.44C1163.56,360.44,1168.54,354.48,1166.12,350.61Z"/><path class="cls-19" d="M1148.63,420.11V583.37"/><path class="cls-19" d="M1149.26,467.69h-102"/><path class="cls-11" d="M1125.44,440.62H1071a2.62,2.62,0,0,1-2.62-2.61v-1.95h59.64V438A2.61,2.61,0,0,1,1125.44,440.62Z"/><path class="cls-19" d="M1149.26,516h-102"/><path class="cls-11" d="M1125.44,489H1071a2.62,2.62,0,0,1-2.62-2.62v-1.94h59.64v1.94A2.62,2.62,0,0,1,1125.44,489Z"/><path class="cls-19" d="M1149.26,564.36H1072"/><path class="cls-11" d="M1125.44,537.31H1071a2.62,2.62,0,0,1-2.62-2.62v-1.94h59.64v1.94A2.62,2.62,0,0,1,1125.44,537.31Z"/><path class="cls-19" d="M1007.54,415.09h70.23"/><path class="cls-18" d="M1010.24,650.56h32.28V419.19h-32.28Z"/><path class="cls-19" d="M1007.54,416.46V511.9"/><path class="cls-34" d="M942.11,509.7,968.38,559l-2.57-25"/><path class="cls-34" d="M986.32,530.2s-4.49,3.84-9,12.82a125.7,125.7,0,0,0-6.83,16.34"/><path class="cls-34" d="M988.24,546.22s-12.38.32-15.16,6.25"/><path class="cls-34" d="M936.35,531.48s17.29,7.69,21.78,23.06l4.49,15.38"/><path class="cls-34" d="M926.73,559s5.13-9,14.1-9.62,19.22,8.33,19.22,8.33"/><path class="cls-10" d="M997.53,593.31c-4.49-11.53-19.86-22.42-22.42-27.55s-1.93-6.4-1.93-6.4H961s.64,1.28-1.92,6.4-17.94,16-22.42,27.55S930.89,651,930.89,651h72.41S1002,604.84,997.53,593.31Z"/><path class="cls-18" d="M997.53,593.31c-2.41-6.21-8-12.23-13-17.28a31.14,31.14,0,0,1-15.21,14c-10.42,4.39-22.3,6-33.69,6.76C932,612.15,930.89,651,930.89,651h72.41S1002,604.84,997.53,593.31Z"/><path class="cls-52" d="M920.32,545.57c8.85,0,16-6,16-13.45s-7.18-13.46-16-13.46-16,6-16,13.46S911.48,545.57,920.32,545.57Z"/><path class="cls-53" d="M922.51,530.15a76.13,76.13,0,0,1,13.82,1.33c-.4-7.14-7.41-12.82-16-12.82-8.05,0-14.72,5-15.85,11.51C910.46,529.81,916.55,530.06,922.51,530.15Z"/><path class="cls-18" d="M1013.25,556.86c2-5.93-2-12.72-9.09-15.16s-14.47.4-16.51,6.34,2,12.72,9.09,15.16S1011.2,562.8,1013.25,556.86Z"/><path class="cls-54" d="M1002.7,551.49a64.26,64.26,0,0,1,10.67,4.87c1.64-5.81-2.38-12.28-9.25-14.65-6.44-2.21-13.13-.06-15.83,4.83C993.17,547.89,998,549.78,1002.7,551.49Z"/><path class="cls-18" d="M962.76,575c5-7.26,4.2-16.59-1.9-20.83s-15.14-1.8-20.19,5.47-4.21,16.59,1.89,20.83S957.71,582.26,962.76,575Z"/><path class="cls-55" d="M951.34,564.44a76.42,76.42,0,0,1,9-10.57c-6.09-3.75-14.75-1.24-19.65,5.81-4.61,6.61-4.31,14.94.39,19.58C944.19,574.13,947.88,569.27,951.34,564.44Z"/><path class="cls-18" d="M967.62,533.76c6.12-.66,10.45-7.1,9.67-14.4s-6.38-12.66-12.5-12-10.46,7.1-9.68,14.39S961.49,534.41,967.62,533.76Z"/><path class="cls-10" d="M964.36,519a64.05,64.05,0,0,1-.13-11.5c-5.84,1-9.9,7.24-9.14,14.32.71,6.64,5.42,11.69,10.88,12.05C965.15,528.94,964.82,523.88,964.36,519Z"/><path class="cls-18" d="M1005.67,532.12c6.19-4.83,7.92-13,3.86-18.15s-12.36-5.5-18.54-.67-7.91,13-3.86,18.15S999.49,536.94,1005.67,532.12Z"/><path class="cls-10" d="M998.78,520.16a68,68,0,0,1,10.38-6.61c-4.16-4.77-12.17-4.92-18.17-.22-5.64,4.39-7.57,11.53-4.81,16.69C990.18,526.49,994.57,523.35,998.78,520.16Z"/><path class="cls-19" d="M991,513.33c6.18-4.83,14.48-4.53,18.54.67s2.33,13.32-3.86,18.15"/><path class="cls-10" d="M942.11,509.7s-19.22-2.57-21.15-11.53,9.62-12.17,17.95-11.54,9,9,8.33,13.46S942.11,509.7,942.11,509.7Z"/><path class="cls-18" d="M935.31,500.29a56.62,56.62,0,0,0,6.46,9.36l.33.05s4.49-5.13,5.13-9.62,0-12.82-8.33-13.45a28.84,28.84,0,0,0-7.53.44A33.86,33.86,0,0,0,935.31,500.29Z"/><path class="cls-56" d="M928,554.33c3.48,3.35,3.07,9.42-.93,13.56s-10,4.78-13.52,1.42-3.06-9.43.93-13.57S924.56,551,928,554.33Z"/><path class="cls-10" d="M920.87,559.9a50.25,50.25,0,0,1,6.85-5.86c-3.52-3-9.33-2.32-13.21,1.7-3.63,3.77-4.31,9.15-1.77,12.6C915.27,565.39,918.14,562.65,920.87,559.9Z"/><path class="cls-34" d="M52.87,504.37,37.94,558.24l-2.93-25"/><path class="cls-34" d="M63.22,524.39S48,535.65,47,551.64l-1,16"/><path class="cls-10" d="M6.77,592.05c4.49-11.53,19.86-22.42,22.43-27.55s1.92-6.4,1.92-6.4H43.3s-.64,1.28,1.92,6.4,18,16,22.43,27.55,5.76,57.67,5.76,57.67H1S2.29,603.58,6.77,592.05Z"/><path class="cls-18" d="M6.77,592.37c2.42-6.21,8-12.23,13-17.27a31.12,31.12,0,0,0,15.21,14c10.41,4.39,22.29,6,33.68,6.76C72.33,611.21,73.41,650,73.41,650H1S2.29,603.9,6.77,592.37Z"/><path class="cls-57" d="M63.37,525c1.61,7.26,9.92,11.58,18.55,9.65s14.33-9.36,12.71-16.61-9.92-11.58-18.55-9.65S61.75,517.76,63.37,525Z"/><path class="cls-18" d="M76.44,520.08a76.83,76.83,0,0,0-13.2,4.3c-1.16-7,4.45-14.11,12.84-16,7.87-1.75,15.45,1.68,18,7.78C88.12,517.13,82.23,518.71,76.44,520.08Z"/><path class="cls-18" d="M61.72,579.59c6.1-4.24,7-13.57,1.9-20.83s-14.09-9.71-20.19-5.47-7,13.57-1.9,20.84S55.62,583.84,61.72,579.59Z"/><path class="cls-58" d="M53,563.5a75.67,75.67,0,0,0-9-10.57c6.08-3.75,14.75-1.24,19.65,5.81,4.6,6.61,4.31,14.94-.4,19.58C60.12,573.19,56.43,568.33,53,563.5Z"/><path class="cls-18" d="M33.24,533.42c6.12-.69,10.42-7.16,9.6-14.45S36.39,506.34,30.27,507s-10.42,7.15-9.6,14.44S27.12,534.11,33.24,533.42Z"/><path class="cls-10" d="M33.16,518.26A63.37,63.37,0,0,0,30.77,507c5.92-.34,11.25,4.91,12,12,.75,6.64-2.75,12.59-8,14.12C34.56,528.16,33.78,523.16,33.16,518.26Z"/><path class="cls-10" d="M52.87,504.37S71.07,497.7,71,488.52s-12-9.79-20-7.36-6.81,10.7-5.21,14.94S52.87,504.37,52.87,504.37Z"/><path class="cls-18" d="M57.46,493.72a55.48,55.48,0,0,1-4.28,10.53l-.31.12s-5.49-4-7.09-8.27S43,483.59,51,481.16A29,29,0,0,1,58.44,480,33.63,33.63,0,0,1,57.46,493.72Z"/><path class="cls-10" d="M21.41,551.33s-5.75-16-13.81-16S-1.07,545.83,1,552.86s9.36,6,13.09,4.66S21.41,551.33,21.41,551.33Z"/><path class="cls-10" d="M12.08,547.25a49.28,49.28,0,0,1,9.23,3.81l.1.27s-3.57,4.8-7.29,6.18-11,2.37-13.09-4.66a25.26,25.26,0,0,1-1-6.54A29.46,29.46,0,0,1,12.08,547.25Z"/><path class="cls-34" d="M2.62,542.8s27.58,10.81,33.11,18.55"/><path class="cls-59" d="M1183.07,463a473,473,0,0,1,61.26-16.4"/><path class="cls-20" d="M1159.9,343.82s2.8-5.73.46-9.44-.46-6.52-1.4-7.46-2.82,1.88-2.82,3.76.94,7.51.94,7.51Z"/><path class="cls-11" d="M347.68,403.92h63.46l8.49-27h-36.2l-35.75,22Z"/><path class="cls-18" d="M382.26,403.81H422.8v-27H418l-35.75,22Z"/><path class="cls-15" d="M356.3,396.25h26.24L408,380H381.76Z"/><path class="cls-10" d="M351,400.89h29v-1.4H351Z"/><path class="cls-10" d="M419,400.9V381.13h-3.92L384.31,400.9Z"/><path class="cls-20" d="M1176.09,400.26a7,7,0,0,1,2.53-9.05c10.79-7.08,46.5-30.08,59.3-33.12,15.15-3.61,22.11,14.3,5.21,23.25s-46.75,22.87-58.69,22.87C1179.6,404.21,1177.21,402.41,1176.09,400.26Z"/><path class="cls-43" d="M1238.49,357c-7.58,1.8-22.74,10.21-36.64,18.59.06,4.57.51,9,3.05,13.1,1.9,3.08,5.57,8.2,8.4,10.53,11.32-4.77,23.2-12.34,31.83-16.91C1263,372.86,1254.52,353.2,1238.49,357Z"/><path class="cls-19" d="M1206.16,373s2.59,16.28,13.18,23.44"/><path class="cls-38" d="M1223.28,569.91s0,6.05-4.76,7.84a31.92,31.92,0,0,0-6.55,3.09s2,5.73-.34,10.14-7.88,13.39-6.1,18.14a6,6,0,0,0,3.53,3.83,4.77,4.77,0,0,0,2.19.28l24.11-31.18s-2-5.72-5.38-8.18A44.36,44.36,0,0,0,1223.28,569.91Z"/><path class="cls-19" d="M1216,593.28l-5.52-.23"/><path class="cls-19" d="M1217.36,589l-5.53-.24"/><path class="cls-27" d="M1226.71,572.37a14.64,14.64,0,0,0,.29,14.07l5.74-8A30.4,30.4,0,0,0,1226.71,572.37Z"/><path class="cls-39" d="M1209.12,612.56l24.52-34.26"/><path class="cls-60" d="M218.12,315.58s.54,5,1.92,6.84-2.81,3.83-2.81,3.83"/><path class="cls-10" d="M298.85,619.88l12.66,24.83,8-8.49-4.42-14.52Z"/><path class="cls-37" d="M223.64,446.46c13.77-1.66,28.26,46.66,41.77,76.75,6.77,15.09,27.49,69.62,57.07,106.13-12.46-2.8-19.11-2.08-19.92-1.88-1.39.34-2.9.14-4.33.39a17.27,17.27,0,0,0-7.81,3.57c-.07,0-3.77,5.36-3.77,5.36s-10.54-32.91-18.76-48.22C248.3,552,248.16,545.7,248.16,545.7S171.15,452.75,223.64,446.46Z"/><path class="cls-11" d="M307.12,636s3.89,5.14,8.31,2.67,3.08-3.93,3.08-3.93,24.94,7.69,27.41,12.12c1.24,2.22,1.35,0,.91,1.19a4.76,4.76,0,0,1-1.2,1.85l-37.51.43a5.09,5.09,0,0,1-3-5.41,44.67,44.67,0,0,1,1.3-7.67Z"/><path class="cls-10" d="M251,579.43,243,595.76l11.67.67,8.25-12.74Z"/><path class="cls-45" d="M231.55,442.66c12.23,6.57,65.56,25.93,69.13,42.93,3.41,16.19-25.31,70.45-27.19,117.4-7.51-10.33-13-14.17-13.73-14.55-1.27-.67-2.28-1.81-3.51-2.57A17.44,17.44,0,0,0,248,583.4l-.09,0s7.52-30.1,11.46-47C268.78,496,278.17,495,278.17,495l-75.49-21.18-1.15-.34C170.31,447.87,219.34,436.09,231.55,442.66Z"/><path class="cls-10" d="M240.8,594.83a14.64,14.64,0,0,1,8.65,11.09l-6.68-5.39A4.82,4.82,0,0,1,240.8,594.83Z"/><path class="cls-46" d="M228.84,441.64c1.17.63,0,.52,1.79,1.34-3.63,2.82-4.48,6.65-6.46,10.91-4,8.52-16.33,12.61-25.34,8.09L200,472.8l-1.16-.34C167.6,446.85,216.63,435.07,228.84,441.64Z"/><path class="cls-11" d="M246.27,588s-2.14.82,2.82,1.88a9.32,9.32,0,0,1,6.57,4.69S273.07,618.65,272,623.6c-.54,2.48,1,.9-.11,1.5h0c-1.06.56-5.92,3.06-6.82,2.28l-27.5-28a5.12,5.12,0,0,1,1.29-6.08,43.84,43.84,0,0,1,6-4.89Z"/><path class="cls-10" d="M236.88,595.47s-1.88,4.7.94,7.51,25.69,25.31,28.81,24.4-7.22-16-13.79-24.4S237.82,592.65,236.88,595.47Z"/><path class="cls-61" d="M223.41,371.5c0,1,10.12,18.19,9.1,24.26s-14.16,7.08-14.16,7.08Z"/><path class="cls-12" d="M178.5,391.67a5,5,0,0,1,4.63,8.48c-2,1.82-5.87,3.19-10.1,4.72-13.08,4.72-39.6,14.93-43,12.87-7.65-4.59,1.18-13.6,7.89-15.48s31.94-8,40.35-10.52A1.17,1.17,0,0,1,178.5,391.67Z"/><g class="cls-41"><path class="cls-62" d="M129,417h.1c8.5.33,16.76-5.19,23.19-10.31a101.75,101.75,0,0,0,12.25-11.3c-10.26,2.64-22.31,5.63-26.65,6.85C131.52,404.05,123.24,412.27,129,417Z"/></g><path class="cls-12" d="M177.93,401.45s10.35,2.42,15.27.5,5-4.71,5-4.71,2.2-3.4,2.25-4.79a14.28,14.28,0,0,0-.59-3.49s9.82-2.46,10.58-4.51-9,.39-13.93.92-6.89-1.61-9.72-.31-5.32,6.15-9.73,7S171.71,400.56,177.93,401.45Z"/><path class="cls-12" d="M199.14,385s-6.78.23-11.71,2.16Z"/><path class="cls-12" d="M129.84,417.07c2.62,2.34,5.85-.43,8.45-2.82,9.37-8.64,37.2-38.25,43.19-49.77,7.1-13.64-5.33-20.67-18-6.64S135,396.46,128,409.55C125.69,413.77,128.05,415.48,129.84,417.07Z"/><path class="cls-12" d="M192.69,329.42s16.18,9.63,21.19,7.31c4.6-2.13,4.68-20.9,4.54-25.7-.2-6.94-1.2-12.75-6.08-17.89s-23.1-1-27.7,12.75S192.69,329.42,192.69,329.42Z"/><path class="cls-62" d="M208.3,327.23a50.55,50.55,0,0,0,4-12.72c.66-3.2,1.53-5.15,4.26-7,.56-.4,1.07-.8,1.55-1.22-.57-4.91-2-9.21-5.76-13.12-4.87-5.14-23.09-1-27.7,12.75s8.05,23.53,8.05,23.53a87.3,87.3,0,0,0,13.57,6.47A21.77,21.77,0,0,1,208.3,327.23Z"/><path class="cls-12" d="M202.84,324.68l6.41,32.37-23.83-.46s.44-9,0-22.93l-.4-13.89Z"/><path class="cls-63" d="M197.28,343.53a47.31,47.31,0,0,0,10.6.58L211.75,359l-26.33-2.43s.28-5.76.18-15.11C189.48,342.26,193.38,343,197.28,343.53Z"/><path class="cls-64" d="M183.36,424.58s-21.14-58-15.36-65a29.79,29.79,0,0,1,12.38-9.11s19.47-3.05,31.92-.21,19.92,9.59,14,27.55c0,.1.57,51.63,2.51,61.61-2.8,3.27-6.39,7.58-10.92,13.2-13.95,17.36-45.48,7.85-45.48,7.85Z"/><path class="cls-12" d="M270.32,404.22a7,7,0,0,0-.71-9.26c-9.08-8.94-39.2-38.12-51-43.55-14-6.42-23.6,5.83-9,17.77s40.25,34.93,51.81,37.25C266.16,407.37,268.81,406.08,270.32,404.22Z"/><path class="cls-12" d="M308.48,379.32c5-1.41,9.68,7.21,4.6,8.5a70.78,70.78,0,0,0-12.61,5C290.55,398,266.07,410.47,259,405s2.13-13.39,8.86-15.26,31.95-7.92,40.38-10.4Z"/><path class="cls-12" d="M303.3,382.35c4.89-5.12,14.59-4.23,15.6-4.26a75.35,75.35,0,0,1,10.93,1.43c6.18,1.16,1.64,11.61-5.64,9.39-4.45-1.37-13-1.53-15.35-1.82C311.42,384.26,301.58,385.72,303.3,382.35Z"/><path class="cls-65" d="M201.68,283.24a63.17,63.17,0,0,0,8.36,1.9c3,.41,6.81,1.75,8,5.76l.9,3.59a9.88,9.88,0,0,1-3.59,10.4,8.51,8.51,0,0,1-1.24.75l-3.92,2s2.94,3.92,0,10.81-13.74,18.74-13,24c2.58,18.07,5.36,25,1.44,29s-27.22,5.93-32.51.64c-4.8-4.8,7.17-21.47,10.07-33.57C177.23,334,167,332,167,320.93,167,291.19,183.22,278,201.68,283.24Z"/><path class="cls-65" d="M218.89,294.49l-.9-3.59a7,7,0,0,0-1.17-2.34c.09,4.63-3.38,8.12-7.88,10.26-2,.94-2.83,1.17-3.06,3.44s.27,4.49.16,6.71a31,31,0,0,1-2.24,10.32c-3.07,7.4-8.27,10.68-15.89,12.23a108.63,108.63,0,0,1-14.63,1.88c1.86,1.78,3.3,3.19,2.86,5a62.56,62.56,0,0,1-3.65,10.07c5.32.17,10.6.77,15.53,3A33.47,33.47,0,0,1,200.16,361c-.61-4.4-1.84-10.36-3-18.66-.75-5.24,10.05-17.1,13-24s0-10.81,0-10.81l3.92-2a9.73,9.73,0,0,0,1.24-.75A9.83,9.83,0,0,0,218.89,294.49Z"/><path class="cls-66" d="M1256.14,322.7s2.82,0,1.88,3.75"/><path class="cls-18" d="M175.26,338.31a.83.83,0,0,1,1.42-.58c1.36,1.33,3.88,2.87,8.32,3a45.29,45.29,0,0,0,11.79-1.24.83.83,0,0,1,1,.92,6.56,6.56,0,0,0,.05,2.05c.15,1,.25,1.73.31,2.22a.84.84,0,0,1-.78.91,72.67,72.67,0,0,1-12.39-.33,16.83,16.83,0,0,1-9.51-4.85.81.81,0,0,1-.23-.57Z"/><path class="cls-67" d="M191.74,350.35c2.37,3.09,2.95,7.38,3,11.17a13.46,13.46,0,0,1-1.13,5.91,10.64,10.64,0,0,1-3.93,4.3,24.17,24.17,0,0,1-6.73,2.73c-.29.09-.17.54.12.45,4-1.12,8.38-2.74,10.59-6.56,2-3.51,1.76-8,1.08-11.85a14.54,14.54,0,0,0-2.55-6.38C192,349.88,191.56,350.12,191.74,350.35Z"/><path class="cls-67" d="M189.61,351a19.37,19.37,0,0,1,.86,8.67,8.86,8.86,0,0,1-3.65,5.91c-.25.17,0,.57.24.4a9.31,9.31,0,0,0,3.83-6c.62-3.05,0-6.16-.83-9.1A.23.23,0,0,0,189.61,351Z"/><path class="cls-67" d="M216.93,291.06c-2.06,3.2-5.42,5.17-8.89,6.5-1.43.56-3,1.19-3.57,2.73a7.1,7.1,0,0,0-.31,2.6,19.68,19.68,0,0,1-.15,3.16,33,33,0,0,1-1.76,6.15c-.7,1.94-1.47,3.86-2.35,5.73a35,35,0,0,1-6.56,9.75A22.47,22.47,0,0,1,182.69,334c-.29.06-.17.52.12.45,7.44-1.79,13-7.67,16.47-14.21a57.91,57.91,0,0,0,4.6-11.46,19,19,0,0,0,.64-3.07,22.77,22.77,0,0,0,.1-3,4.59,4.59,0,0,1,.74-3,5.7,5.7,0,0,1,2.38-1.49c3.74-1.48,7.34-3.4,9.58-6.87C217.5,291,217.09,290.81,216.93,291.06Z"/><path class="cls-67" d="M174.64,299.1a38.72,38.72,0,0,0-1.88,15.11c0,.3.48.3.47,0a38.43,38.43,0,0,1,1.86-15C175.19,298.94,174.74,298.81,174.64,299.1Z"/><path class="cls-68" d="M885.11,203H544.26V375.75H885.11Z"/><path class="cls-69" d="M938.43,301.36a26.2,26.2,0,0,0-25,26.18v2.66h52.41v-2.66a26.2,26.2,0,0,0-25.08-26.18V111a1.14,1.14,0,0,0-2.28,0Z"/><path class="cls-70" d="M551.72,241.11a26.2,26.2,0,0,0-25.06,26.18V270h52.41v-2.66A26.19,26.19,0,0,0,554,241.11V83.37a1.14,1.14,0,0,0-2.28,0Z"/><path class="cls-71" d="M452,191.5A26.21,26.21,0,0,0,427,217.68v2.66H479.4v-2.66a26.2,26.2,0,0,0-25.08-26.18V1.1a1.14,1.14,0,0,0-2.28,0Z"/><path class="cls-15" d="M179.32,460.26s3.68,13.14,15.29,16.21,49.78,7.25,49.78,7.25V477.6s.55-6.21-22.24-11.22C198.94,461.28,192.86,461.28,179.32,460.26Z"/><path class="cls-72" d="M213.17,642.42h-5.63l.23-159.63h5.63Z"/><path class="cls-10" d="M213.4,488.79v-6h-5.63V491Q210.57,489.87,213.4,488.79Z"/><path class="cls-72" d="M213.23,605.53l0-8.64-5.63.42,0,8.08Z"/><path class="cls-72" d="M207.55,630.25v12.18h5.63l0-12.74Q210.37,629.92,207.55,630.25Z"/><path class="cls-10" d="M179.6,462.14s1.88,16.9,13.15,19.71,49.76,1.88,49.76,1.88V478.1s.55-5.72-21.59-10.33C198.38,463.08,192.75,463.08,179.6,462.14Z"/><path class="cls-19" d="M179.6,462.14s1.88,16.9,13.15,19.71,49.76,1.88,49.76,1.88"/><path class="cls-72" d="M235.34,645.38l-13.26-2.57a61.66,61.66,0,0,0-23.45,0l-13.26,2.57a8.52,8.52,0,0,0-6,4.55h62A8.52,8.52,0,0,0,235.34,645.38Z"/><path class="cls-19" d="M241.34,649.93a8.52,8.52,0,0,0-6-4.55l-13.26-2.57a61.66,61.66,0,0,0-23.45,0l-13.26,2.57a8.52,8.52,0,0,0-6,4.55"/><path class="cls-18" d="M234.77,596.41H185.94v1.88h48.83Z"/><path class="cls-11" d="M234.77,595.54H185.94v.88h48.83Z"/><path class="cls-15" d="M1313.48,460.26s-3.68,13.14-15.29,16.21-49.78,7.25-49.78,7.25V477.6s-.56-6.21,22.24-11.22C1293.86,461.28,1300,461.28,1313.48,460.26Z"/><path class="cls-72" d="M1279.64,642.42h5.63L1285,482.79h-5.64Z"/><path class="cls-10" d="M1279.4,488.79v-6H1285V491Q1282.24,489.87,1279.4,488.79Z"/><path class="cls-72" d="M1279.58,605.53l0-8.64,5.64.42,0,8.08Z"/><path class="cls-72" d="M1285.25,630.25l0,12.18h-5.63l0-12.74C1281.5,629.84,1283.37,630,1285.25,630.25Z"/><path class="cls-27" d="M1313.21,462.14s-1.88,16.9-13.15,19.71-49.77,1.88-49.77,1.88V478.1s-.54-5.72,21.6-10.33C1294.43,463.08,1300.06,463.08,1313.21,462.14Z"/><path class="cls-19" d="M1313.21,462.14s-1.88,16.9-13.15,19.71-49.77,1.88-49.77,1.88"/><path class="cls-18" d="M1257.47,645.38l13.26-2.57a61.66,61.66,0,0,1,23.45,0l13.26,2.57a8.52,8.52,0,0,1,6,4.55h-62A8.52,8.52,0,0,1,1257.47,645.38Z"/><path class="cls-73" d="M1251.47,649.93a8.52,8.52,0,0,1,6-4.55l13.26-2.57a61.66,61.66,0,0,1,23.45,0l13.26,2.57a8.52,8.52,0,0,1,6,4.55"/><path class="cls-18" d="M1258,598.29h48.83v-1.88H1258Z"/><path class="cls-11" d="M1258,596.41h48.83v-.88H1258Z"/><path class="cls-10" d="M571.13,475.59l-16.08-73.67H476.18l16.07,73.67Z"/><path class="cls-18" d="M573,475.59l-16.08-73.67H478.06l16.07,73.67Z"/><path class="cls-10" d="M573,475.59l-16.07-73.67H528.59C525,413,519.32,423.49,514,433.7c-5.49,10.61-12.62,22.39-22.51,29.95l2.61,12H573Z"/><path class="cls-74" d="M483.41,401.87c6,24.59,10.75,48.06,16.42,72.91"/><path class="cls-49" d="M798.88,267.69c-.42-.35,0-15.71,18-16.31s22.23,26.22,10.61,36.16-26.05-4.26-26.05-4.26l-3.08-15.47"/><path class="cls-75" d="M817.76,274.58a20,20,0,0,1-8.69-8.21c-1.09-1.9-3.22-6.94-5.71-9.85-4.66,4.69-4.74,10.94-4.48,11.16l-.54.13,3.08,15.46s14.42,14.22,26.05,4.26c3.53-3,5.59-7.6,6.25-12.49A18.54,18.54,0,0,1,817.76,274.58Z"/><path class="cls-75" d="M808.67,253.92c3.5.23,5.17,3.37,5.87,6.45a25.9,25.9,0,0,1,.57,4.81,20.91,20.91,0,0,1-.41,5.8,14.58,14.58,0,0,1-3.17,6c-.19.22.14.56.33.33a15.38,15.38,0,0,0,3.07-5.46,19.31,19.31,0,0,0,.66-6.15c-.09-3.29-.41-7.12-2.46-9.85a6,6,0,0,0-4.48-2.42C808.37,253.43,808.37,253.9,808.67,253.92Z"/><path class="cls-75" d="M818.12,252.42c5.75,5.6,7.4,14.63,4.94,22.15a19.92,19.92,0,0,1-3.22,6.05c-.18.24.15.58.33.33a22.68,22.68,0,0,0,2.25-23.31,19.44,19.44,0,0,0-4-5.56C818.24,251.87,817.9,252.2,818.12,252.42Z"/><path class="cls-75" d="M828.64,257.57c2.27,8.17-2.29,15.81-3.12,23.81,0,.3.44.3.46,0,.44-4.11,1.85-8,2.82-12a23.39,23.39,0,0,0,.29-11.92C829,257.16,828.57,257.28,828.64,257.57Z"/><path class="cls-75" d="M807.17,270.48c1.52-2.69,2.46-5.94,1.2-8.93-.11-.27-.57-.15-.45.12,1.21,2.88.31,6-1.16,8.57C806.61,270.51,807,270.74,807.17,270.48Z"/><path class="cls-10" d="M723.63,381.17c.65-1.12-.46-3-2.48-4.14s-4.19-1.21-4.84-.08.47,3,2.49,4.14S723,382.29,723.63,381.17Z"/><path class="cls-15" d="M787.12,335.37c-.94-.93-11.15-12.73-11.15-12.73s21.66-9.23,31.81-3.23c6.51,3.85,8.45,7.51,7.51,7.51S789,338.19,789,338.19Z"/><path class="cls-75" d="M805.22,301.68a3.68,3.68,0,0,1-1.3,5.68c-5.75,2.66-15.49,7.09-18.09,7.76A16.57,16.57,0,0,1,768,308.43a27.49,27.49,0,0,1-4-8.59c-1.69-6.5-2.32-15.4-2.56-21a3.67,3.67,0,0,1,4.93-3.61l23.45,8.44a3.64,3.64,0,0,1,1.6,1.13Z"/><path class="cls-12" d="M757.55,408.94a6.82,6.82,0,0,1-4.86-7.72c1.93-12.36,8.63-53,14.77-64.18,7.27-13.24,24.67-6.6,20.1,11.38s-14,48.49-21.74,57.08C762.68,409,759.82,409.53,757.55,408.94Z"/><g class="cls-41"><g class="cls-41"><g class="cls-41"><path class="cls-62" d="M770,392.86c-4.06-.56-8.06-1.52-12.17-1.78a26.79,26.79,0,0,0-3.47,0c-.71,4.19-1.28,7.73-1.66,10.16a6.82,6.82,0,0,0,4.86,7.72c2.27.58,5.13.05,8.28-3.44,2.28-2.51,4.68-6.9,7.06-12.29Z"/></g></g></g><path class="cls-12" d="M720.65,379.8c-4.81-1.82-10.1,6.2-5.25,7.9a70.13,70.13,0,0,1,11.9,6c9.24,6,29.39,21.05,36.8,16.36s1.17-13.09-5.24-15.51-30-11.5-38-14.67Z"/><path class="cls-15" d="M837.38,471.44c-1.37-2.79-2.32-4.56-2.61-4.67-1.44-.59-13.15-40.92-16.6-48.41S812,359.82,812,359.82L770.23,357l-3,11.82-4.49,44.81-8.36,57.77h83Z"/><path class="cls-45" d="M834.24,471.44c2.2-9.82,2.65-21.44-4.3-37.48-8.12-18.75-17.14-36.48-17.14-36.48L803,395.29l-31.07,4.64s-1.32,42.91-8.07,71.51Z"/><path class="cls-76" d="M829.94,434c-8.12-18.75-17.14-36.48-17.14-36.48L803,395.29l-31.07,4.64s-.42,13.82-2,31c7.21,3.25,15.14,5.63,21.46,9.6,10.95,6.91,16.81,19,21.45,30.92h21.45C836.44,461.62,836.89,450,829.94,434Z"/><path class="cls-11" d="M807.56,390.91s23.68-54.55,16.4-59.65c-1.47-1-3-2.12-4.47-3.21a36.91,36.91,0,0,0-36.32-4.54c-.84.36-1.66.76-2.44,1.18-11.06,5.92-16.82,24.51-11.9,42.4,2.81,10.24-5.73,36.72-5,46.68,3.49,2.37,9.85,14.51,16.68,16.46,19.72,5.63,39.92-8.51,39.92-8.51Z"/><path class="cls-12" d="M784.75,297.7,793.63,286s4.4,7.8,6.81,21.13a53,53,0,0,0,4.56,15c-4.4,3.94-10.42,8-16.21,8.22l-.13-.77C788.58,318.84,786.24,308.33,784.75,297.7Z"/><path class="cls-60" d="M784.75,297.7,793.63,286a65.5,65.5,0,0,1,5.25,14.1c-1.67,2.18-3.37,4.32-5.08,6.38a49,49,0,0,1-6.67,6.47C786.37,307.85,785.47,302.79,784.75,297.7Z"/><path class="cls-12" d="M795.27,300.45s-13.08,11.06-18.41,10.08c-4.9-.89-8.93-10.79-9.15-11.65-1.2-4.67-1.19-4.45-2.23-9.06-1.51-6.64-1.17-13,2.2-19.05s21.72-6.62,29.48,5.33S795.27,300.45,795.27,300.45Z"/><path class="cls-60" d="M770.3,283.11c4,2.7,8.73,3.05,13.33,3.69,5.76.8,11.1,2.43,15.58,5.69a19.1,19.1,0,0,0-2.05-16.37c-7.76-11.95-26.1-11.41-29.48-5.33a19.46,19.46,0,0,0-2.4,7.48A21.36,21.36,0,0,0,770.3,283.11Z"/><path class="cls-15" d="M818.11,471.44h33.56c-3.16-10.36-6.34-19.37-9.22-24.84-11.22-21.44-23.26-54.42-23.26-54.42s12.27-44.4,11.64-53.06-22.71-19.5-22.71-19.5,1.21,29.76-5.52,43.78-12.62,45.85,4.24,64.94C812.24,434.45,813.73,455.68,818.11,471.44Z"/><path class="cls-15" d="M750.13,471.44h15.23q1.44-9.82,3.7-21.08c3.71-18.25,1.73-85.63,4.26-104.19,2.27-16.67,11.38-25.26,13.2-26.82l.32-.27s-13.4,2.69-15.94,7.7a35.07,35.07,0,0,0-3.13,9A142,142,0,0,1,761,357.21a12.76,12.76,0,0,0-.89,7.32c1.45,6.67,6.48,22.74-.31,49.34C757.35,423.62,753.72,446.45,750.13,471.44Z"/><path class="cls-12" d="M837.75,412.25a6.82,6.82,0,0,1-8.13-4.13c-4.69-11.61-12.26-46.85-12.73-59.6-.56-15.1,10.94-23.41,16.24-5.63s4,31.45,10,62.16C844,409.67,840,411.58,837.75,412.25Z"/><path class="cls-12" d="M842.88,452.64a4.88,4.88,0,0,0,9.47-.64c.44-2.61-1.85-14.57-2.32-19-1.22-11.37-6.81-29.17-8.75-38.15-1.86-8.57-13.64,6.68-11.65,13.24s10.81,36,13.18,44.28C842.83,452.48,842.86,452.56,842.88,452.64Z"/><path class="cls-12" d="M850.68,447s4.91,10.05,5.92,15.15a108.27,108.27,0,0,0,4.15,13.25s-1.66,3.62-2.78,4.39-6-8-6-8,3.13,8.38,1.84,10.09-4.44-6.65-6.58-11-5-4.86-5.4-7.88,2.27-7.65.65-11.77S846.65,442.32,850.68,447Z"/><path class="cls-12" d="M848.29,473.24s-3.39-5.73-4.41-10.82Z"/><path class="cls-12" d="M842.63,457.29a70.49,70.49,0,0,0-1,10.49c0,4.69,0,7.51,1.88,6.57s2.82-11.27,2.82-11.27Z"/><path class="cls-77" d="M705.45,367.88l.63-2.79A42.93,42.93,0,0,0,695,358.46c-5.84-2.17-5.11-.4-2.69,1.51S705.45,367.88,705.45,367.88Z"/><path class="cls-77" d="M705.45,367.88l.63-2.79A42.93,42.93,0,0,0,695,358.46c-5.84-2.17-5.11-.4-2.69,1.51S705.45,367.88,705.45,367.88Z"/><path class="cls-77" d="M703.54,370.31l.63-2.78a42.67,42.67,0,0,0-11-6.63c-5.84-2.18-5.12-.41-2.7,1.5S703.54,370.31,703.54,370.31Z"/><path class="cls-77" d="M703.54,370.31l.63-2.78a42.67,42.67,0,0,0-11-6.63c-5.84-2.18-5.12-.41-2.7,1.5S703.54,370.31,703.54,370.31Z"/><path class="cls-77" d="M704.06,374.64l.63-2.79a43,43,0,0,0-11-6.63c-5.85-2.17-5.12-.4-2.7,1.51S704.06,374.64,704.06,374.64Z"/><path class="cls-77" d="M704.06,374.64l.63-2.79a43,43,0,0,0-11-6.63c-5.85-2.17-5.12-.4-2.7,1.51S704.06,374.64,704.06,374.64Z"/><path class="cls-77" d="M703.79,378.06l.63-2.79a43.14,43.14,0,0,0-11-6.63c-5.84-2.18-5.11-.4-2.69,1.51S703.79,378.06,703.79,378.06Z"/><path class="cls-77" d="M703.79,378.06l.63-2.79a43.14,43.14,0,0,0-11-6.63c-5.84-2.18-5.11-.4-2.69,1.51S703.79,378.06,703.79,378.06Z"/><path class="cls-12" d="M720.85,381.24s-2,10.05-8.31,4.39-11.38-6.92-13.67-10.54-3.32-12.29-3.11-14.84S711,366,720.85,381.24Z"/><path class="cls-77" d="M701.67,377.63c5.05.62,4.19-1,8.67,1.49a32.87,32.87,0,0,1-.37-4.48,14.94,14.94,0,0,1,1.33-5c-7.87-7.62-15.4-11.2-15.55-9.4-.21,2.56-3.88,8.13-1.6,11.75C694.55,372.61,700.82,376.91,701.67,377.63Z"/><path class="cls-78" d="M709,372.26l-20.76-1.4a1.1,1.1,0,0,1-1-1.18l1.17-11.48a1.17,1.17,0,0,1,1.26-1l20.76,1.4a1.09,1.09,0,0,1,1,1.17l-1.17,11.48A1.18,1.18,0,0,1,709,372.26Z"/><path class="cls-10" d="M706.7,371.28a1.42,1.42,0,1,0-1.84-.95A1.45,1.45,0,0,0,706.7,371.28Z"/><path class="cls-11" d="M708.57,371.42a1.42,1.42,0,1,0-1.85-.95A1.48,1.48,0,0,0,708.57,371.42Z"/><path class="cls-11" d="M688.8,366.87a.71.71,0,0,1-.13.38.36.36,0,0,1-.29.1.3.3,0,0,1-.26-.14.66.66,0,0,1,0-.37l0-.19a.67.67,0,0,1,.13-.37.3.3,0,0,1,.28-.1.29.29,0,0,1,.26.14.57.57,0,0,1,.05.37Zm-.12-.2a.73.73,0,0,0,0-.28.16.16,0,0,0-.16-.09.18.18,0,0,0-.17.07.49.49,0,0,0-.08.25l0,.24a.45.45,0,0,0,0,.27.16.16,0,0,0,.15.1.17.17,0,0,0,.17-.07.49.49,0,0,0,.09-.26Zm1,.27a.67.67,0,0,1-.13.37.33.33,0,0,1-.28.11.31.31,0,0,1-.26-.14.6.6,0,0,1,0-.37l0-.2a.63.63,0,0,1,.13-.36.36.36,0,0,1,.55,0,.66.66,0,0,1,.05.37Zm-.12-.21a.45.45,0,0,0,0-.27.18.18,0,0,0-.15-.1.21.21,0,0,0-.18.07.53.53,0,0,0-.08.26l0,.23a.57.57,0,0,0,0,.28.18.18,0,0,0,.15.1.21.21,0,0,0,.17-.07.53.53,0,0,0,.08-.26Zm1,.27a.71.71,0,0,1-.13.38.36.36,0,0,1-.29.1.32.32,0,0,1-.26-.14.68.68,0,0,1,0-.37l0-.19a.67.67,0,0,1,.13-.37.3.3,0,0,1,.28-.1.29.29,0,0,1,.26.14.57.57,0,0,1,0,.37Zm-.12-.21a.7.7,0,0,0,0-.27.16.16,0,0,0-.16-.09.18.18,0,0,0-.17.07.49.49,0,0,0-.08.25l0,.23a.47.47,0,0,0,0,.28.16.16,0,0,0,.15.1.17.17,0,0,0,.17-.07.49.49,0,0,0,.09-.26Zm1,.28a.67.67,0,0,1-.13.37.3.3,0,0,1-.28.1.27.27,0,0,1-.26-.14.55.55,0,0,1-.05-.36l0-.2a.67.67,0,0,1,.13-.37.35.35,0,0,1,.29-.1.32.32,0,0,1,.26.14.66.66,0,0,1,0,.37Zm-.12-.21a.45.45,0,0,0,0-.27.18.18,0,0,0-.15-.1.21.21,0,0,0-.18.07.66.66,0,0,0-.08.26l0,.23a.57.57,0,0,0,0,.28.18.18,0,0,0,.15.1.19.19,0,0,0,.17-.08.46.46,0,0,0,.08-.25Zm1.43.3a.64.64,0,0,1-.13.37.33.33,0,0,1-.29.11.32.32,0,0,1-.26-.14.68.68,0,0,1,0-.37l0-.19a.67.67,0,0,1,.13-.37.3.3,0,0,1,.28-.1.28.28,0,0,1,.26.13.6.6,0,0,1,.05.37Zm-.12-.21a.7.7,0,0,0,0-.27.18.18,0,0,0-.16-.1.19.19,0,0,0-.17.08.46.46,0,0,0-.08.25l0,.23a.47.47,0,0,0,0,.28.18.18,0,0,0,.15.1.19.19,0,0,0,.17-.07.49.49,0,0,0,.09-.26Zm1,.28a.67.67,0,0,1-.13.37.3.3,0,0,1-.28.1.29.29,0,0,1-.26-.14.58.58,0,0,1,0-.37l0-.19a.67.67,0,0,1,.13-.37.35.35,0,0,1,.29-.1.3.3,0,0,1,.26.14.65.65,0,0,1,0,.37Zm-.12-.21a.43.43,0,0,0,0-.27.16.16,0,0,0-.15-.1.19.19,0,0,0-.18.07.61.61,0,0,0-.08.26l0,.23a.53.53,0,0,0,0,.27.15.15,0,0,0,.15.1.16.16,0,0,0,.17-.07.5.5,0,0,0,.08-.26Zm1,.27a.67.67,0,0,1-.13.37.36.36,0,0,1-.55,0,.68.68,0,0,1-.05-.37l0-.2a.63.63,0,0,1,.13-.36.33.33,0,0,1,.28-.11.31.31,0,0,1,.26.14.58.58,0,0,1,0,.37Zm-.12-.21a.7.7,0,0,0,0-.27.18.18,0,0,0-.16-.1.19.19,0,0,0-.17.08.46.46,0,0,0-.08.25l0,.23a.47.47,0,0,0,0,.28.18.18,0,0,0,.15.1.19.19,0,0,0,.17-.07.53.53,0,0,0,.09-.26Zm1,.28a.67.67,0,0,1-.13.37.3.3,0,0,1-.28.1.29.29,0,0,1-.26-.14.58.58,0,0,1-.05-.37l0-.19a.67.67,0,0,1,.13-.37.33.33,0,0,1,.29-.1.3.3,0,0,1,.26.14.65.65,0,0,1,0,.37Zm-.12-.21a.47.47,0,0,0,0-.28.17.17,0,0,0-.15-.09.19.19,0,0,0-.18.07.61.61,0,0,0-.08.25l0,.24a.53.53,0,0,0,0,.27.15.15,0,0,0,.15.1.18.18,0,0,0,.17-.07.5.5,0,0,0,.08-.26Zm1.43.3a.67.67,0,0,1-.13.37.35.35,0,0,1-.29.11.32.32,0,0,1-.26-.14.68.68,0,0,1,0-.37l0-.2a.63.63,0,0,1,.13-.36.3.3,0,0,1,.28-.11.31.31,0,0,1,.26.14.58.58,0,0,1,.05.37Zm-.12-.21a.7.7,0,0,0,0-.27.18.18,0,0,0-.16-.1.21.21,0,0,0-.17.07.53.53,0,0,0-.08.26l0,.23a.48.48,0,0,0,0,.28.18.18,0,0,0,.15.1.19.19,0,0,0,.17-.07.53.53,0,0,0,.09-.26Zm1,.27a.71.71,0,0,1-.13.38.32.32,0,0,1-.28.1.31.31,0,0,1-.26-.14.6.6,0,0,1-.05-.37l0-.19a.67.67,0,0,1,.13-.37.33.33,0,0,1,.29-.1.32.32,0,0,1,.26.13.7.7,0,0,1,0,.38Zm-.12-.21a.45.45,0,0,0,0-.27.16.16,0,0,0-.15-.09.19.19,0,0,0-.18.07.61.61,0,0,0-.08.25l0,.23a.55.55,0,0,0,0,.28.16.16,0,0,0,.15.1.18.18,0,0,0,.17-.07.5.5,0,0,0,.08-.26Zm1,.28a.67.67,0,0,1-.13.37.32.32,0,0,1-.29.1.28.28,0,0,1-.26-.14.63.63,0,0,1-.05-.36l0-.2a.67.67,0,0,1,.13-.37.32.32,0,0,1,.28-.1.31.31,0,0,1,.26.14.58.58,0,0,1,0,.37Zm-.12-.21a.7.7,0,0,0,0-.27.18.18,0,0,0-.16-.1.21.21,0,0,0-.17.07.53.53,0,0,0-.08.26l0,.23a.59.59,0,0,0,0,.28.18.18,0,0,0,.15.1.18.18,0,0,0,.17-.08.45.45,0,0,0,.09-.25Zm1,.27a.58.58,0,0,1-.13.37.3.3,0,0,1-.28.11.31.31,0,0,1-.26-.14.6.6,0,0,1,0-.37l0-.19a.67.67,0,0,1,.13-.37.33.33,0,0,1,.29-.1.32.32,0,0,1,.26.13.68.68,0,0,1,.05.37Zm-.12-.21a.45.45,0,0,0,0-.27.16.16,0,0,0-.15-.09.17.17,0,0,0-.18.07.61.61,0,0,0-.08.25l0,.23a.55.55,0,0,0,0,.28.16.16,0,0,0,.15.1.18.18,0,0,0,.17-.07.5.5,0,0,0,.08-.26Zm1.43.31a.67.67,0,0,1-.13.37.32.32,0,0,1-.29.1.3.3,0,0,1-.26-.14.66.66,0,0,1,0-.37l0-.19a.67.67,0,0,1,.13-.37.32.32,0,0,1,.28-.1.29.29,0,0,1,.26.14.57.57,0,0,1,0,.37Zm-.12-.21a.66.66,0,0,0,0-.27.17.17,0,0,0-.16-.1.18.18,0,0,0-.17.07.5.5,0,0,0-.08.26l0,.23a.55.55,0,0,0,0,.27.15.15,0,0,0,.15.1.16.16,0,0,0,.17-.07.49.49,0,0,0,.09-.26Zm1,.27a.6.6,0,0,1-.13.37.3.3,0,0,1-.28.11.31.31,0,0,1-.26-.14.6.6,0,0,1-.05-.37l0-.2a.63.63,0,0,1,.13-.36.36.36,0,0,1,.29-.11.32.32,0,0,1,.26.14.66.66,0,0,1,0,.37Zm-.12-.21a.45.45,0,0,0,0-.27.18.18,0,0,0-.15-.1.19.19,0,0,0-.18.08.56.56,0,0,0-.08.25l0,.23a.55.55,0,0,0,0,.28.18.18,0,0,0,.15.1.21.21,0,0,0,.17-.07.53.53,0,0,0,.08-.26Zm1,.28a.7.7,0,0,1-.13.37.32.32,0,0,1-.29.1.3.3,0,0,1-.26-.14.66.66,0,0,1,0-.37l0-.19a.67.67,0,0,1,.13-.37.3.3,0,0,1,.28-.1.29.29,0,0,1,.26.14.57.57,0,0,1,.05.37Zm-.12-.21a.73.73,0,0,0,0-.28.18.18,0,0,0-.16-.09.18.18,0,0,0-.17.07.49.49,0,0,0-.08.25l0,.24a.55.55,0,0,0,0,.27.15.15,0,0,0,.16.1.16.16,0,0,0,.16-.07.49.49,0,0,0,.09-.26Zm1,.27a.6.6,0,0,1-.13.37.3.3,0,0,1-.28.11.31.31,0,0,1-.26-.14.6.6,0,0,1,0-.37l0-.2a.63.63,0,0,1,.13-.36.33.33,0,0,1,.29-.11.32.32,0,0,1,.26.14.66.66,0,0,1,.05.37Zm-.12-.21a.45.45,0,0,0,0-.27.18.18,0,0,0-.15-.1.19.19,0,0,0-.18.08.56.56,0,0,0-.08.25l0,.23a.57.57,0,0,0,0,.28.18.18,0,0,0,.15.1.21.21,0,0,0,.17-.07.53.53,0,0,0,.08-.26Z"/><path class="cls-11" d="M694.55,359.82l-4.9-.35a.31.31,0,0,1-.29-.33l.1-.85a.33.33,0,0,1,.35-.29l4.9.35a.31.31,0,0,1,.29.33l-.1.85A.33.33,0,0,1,694.55,359.82Z"/><path class="cls-12" d="M711.87,373.55a42.41,42.41,0,0,0-10-4.22c-5-1.26-1.91,2.42,3,5.39s5.51,6.45,7.35,4.88S716.65,378.23,711.87,373.55Z"/><path class="cls-49" d="M771.64,267.71s-6.57,14,5.15,17,22.54,15,22.54,15,3.26-27.75-5.9-32.36S771.64,267.71,771.64,267.71Z"/><path class="cls-49" d="M783,274.73a1.15,1.15,0,0,1,.57.54c1.13,2.26,7.09,14.17,10.07,18.8a17.27,17.27,0,0,1,1.73,4.83c1.9,7.23,6.26,9.09,10.81,8.74,8.27-.66,13.93-8.71,12.26-16.83-.6-2.92-1.12-5.35-1.2-5.55-1.61-4.63-6-11.63-14-18.46-9-7.65-24.82-3.56-24.82-3.56s-12.39,2.2-16.09,7.14c-2.83,3.77-1.29,10.6,0,13.65a1.15,1.15,0,0,0,1.88.37c1.9-1.92,6.3-5.78,7-9.11a11.4,11.4,0,0,1,1.44-4.11,1.14,1.14,0,0,1,1.39-.37Z"/><path class="cls-75" d="M784.93,272.35c6.74,4.56,11.34,11.55,16.67,17.6.59-2.85.22-6.88.21-9.35,0-4.45-.88-7.67-3.7-11.17-2-2.45-4.08-4.74-6.13-7.07a42,42,0,0,0-13.56.87,47.35,47.35,0,0,0-12.15,4C772.84,267.52,779.35,268.58,784.93,272.35Z"/><path d="M778,293.05a.87.87,0,1,0,0-1.73.87.87,0,0,0,0,1.73Z"/><path d="M769.15,295.86A1.15,1.15,0,1,0,768,295,1,1,0,0,0,769.15,295.86Z"/><path class="cls-79" d="M783.89,323.22s2.69,30.48,5.31,25.54S807,322,807,322"/><path class="cls-80" d="M788.06,354.15a2.82,2.82,0,1,0-2.82-2.81A2.81,2.81,0,0,0,788.06,354.15Z"/><path class="cls-10" d="M784.6,322.93s-10.25,13.38-11.38,25.59S771.87,380,771.87,380s-5.41-18.31-5.41-27.7,2.8-12.38,2.8-12.38,1.17-6.86,4.93-11.56S784.6,322.93,784.6,322.93Z"/><path class="cls-10" d="M797,381.85s2.82-14.08,5.63-20.65,5.36-39,5.36-39,6.85,5.16,7.79,8.92-5.63,14.08-5.63,14.08,4.13,9,2.06,17.67S797,381.85,797,381.85Z"/><path class="cls-10" d="M720.45,377.63l-4.69,11.27,3.44.41,2.81-10.5-2.5-2.12Z"/><path class="cls-81" d="M765.05,292.65s2.82-3.75,4.7-3.75"/><path class="cls-81" d="M775.38,288a9.93,9.93,0,0,1,5.64,0"/><path class="cls-11" d="M773.25,266.25s12.21.94,16.9,5.63S801.42,286,801.42,286s-3.15-11.72-6.27-17.13-17.2-5.41-21.9-4.47-4.69,1.88-4.69,1.88Z"/><path class="cls-81" d="M771.63,293.05s-.77,5.85-.74,6.64,3.4,0,3.4,0"/><path class="cls-81" d="M776,304.05a7,7,0,0,0,4.36-5.79"/><path class="cls-49" d="M771.11,276s-3.14,8.09-6.5,10.5Z"/><path class="cls-20" d="M679,387.3l-1.13-3a48,48,0,0,1,11.31-9.09c6.18-3.33,5.65-1.24,3.24,1.26S679,387.3,679,387.3Z"/><path class="cls-82" d="M679,387.3l-1.13-3a48,48,0,0,1,11.31-9.09c6.18-3.33,5.65-1.24,3.24,1.26S679,387.3,679,387.3Z"/><path class="cls-20" d="M681.47,389.71l-1.13-3a48,48,0,0,1,11.31-9.09c6.17-3.32,5.65-1.24,3.23,1.27S681.47,389.71,681.47,389.71Z"/><path class="cls-83" d="M681.47,389.71l-1.13-3a48,48,0,0,1,11.31-9.09c6.17-3.32,5.65-1.24,3.23,1.27S681.47,389.71,681.47,389.71Z"/><path class="cls-20" d="M681.55,394.63l-1.13-3a48,48,0,0,1,11.31-9.09c6.18-3.32,5.65-1.24,3.24,1.27S681.55,394.63,681.55,394.63Z"/><path class="cls-84" d="M681.55,394.63l-1.13-3a48,48,0,0,1,11.31-9.09c6.18-3.32,5.65-1.24,3.24,1.27S681.55,394.63,681.55,394.63Z"/><path class="cls-20" d="M682.39,398.4l-1.13-3a48.12,48.12,0,0,1,11.31-9.08c6.17-3.33,5.65-1.24,3.23,1.26S682.39,398.4,682.39,398.4Z"/><path class="cls-85" d="M682.39,398.4l-1.13-3a48.12,48.12,0,0,1,11.31-9.08c6.17-3.33,5.65-1.24,3.23,1.26S682.39,398.4,682.39,398.4Z"/><path class="cls-20" d="M646.54,448.16a6.83,6.83,0,0,0-1.09-9.05c-9.3-8.38-40.11-35.72-51.92-40.54-14-5.71-23.31,10.42-8.44,21.51s41.41,28.86,52.85,30.63C642.59,451.42,645.15,450.05,646.54,448.16Z"/><path class="cls-15" d="M593.16,397.45c7,2.85,20.28,13.16,32.34,23.26-.73,4.37-1.83,8.56-4.85,12.1-2.28,2.67-6.56,7-9.62,8.85-10.14-6.26-20.4-15.28-28-20.93C567.31,409,578.36,391.41,593.16,397.45Z"/><path class="cls-15" d="M606,414c-2.22-4.51-4.63-8.67-9.11-11.18-3.25-1.83-6.86-4.67-10.64-5.07a3.25,3.25,0,0,1-2.2-1.16c-9.29,2.39-13.2,15-1,24.11,7.59,5.65,17.85,14.67,28,20.93a31,31,0,0,0,4.85-3.88C611.67,430.4,609.74,421.65,606,414Z"/><path class="cls-20" d="M665.65,402.24a4.88,4.88,0,0,1,8.58,4.08,42.48,42.48,0,0,1-3.54,9.9c-4.87,9.86-20.69,35.26-29.45,35s-6-11.87-1.79-17.23,20.8-24.75,26-31.59Z"/><path class="cls-10" d="M551.69,497.06l-.39.51-12.15,13s-3.86,10.61,1,15.44,56.91,6.75,69.45-5.79-13.5-24.11-13.5-24.11Z"/><path class="cls-15" d="M561.33,394.81s17.32-3.86,28.9,1S597,459.44,597,472a85.56,85.56,0,0,0,2.89,22.18S597,485.48,580.62,500s-45.33,0-45.33,0-4.83-45.33-3.86-64.63-4.87-24.11,1.88-29.91S561.33,394.81,561.33,394.81Z"/><path class="cls-15" d="M597.11,466.75c-11.84,1.73-23.76,2.57-35-1.58-10.08-3.73-17-11.37-16.73-22.42.13-6.89,1.06-14.51-.92-21.19a22.78,22.78,0,0,0-9.76-12.32c-2.39,5.19-2.6,12.55-3.27,26.09-1,19.29,3.86,64.63,3.86,64.63s28.94,14.47,45.33,0,19.25-5.79,19.25-5.79A85.47,85.47,0,0,1,597,472C597,470.69,597,468.91,597.11,466.75Z"/><path class="cls-20" d="M505.61,476.16a6.83,6.83,0,0,0,8.94-1.81c7.62-9.92,32.44-42.81,36.3-55,4.57-14.39-12.24-22.41-22.12-6.7s-25.48,43.57-26.35,55.11C502.05,472.47,503.62,474.92,505.61,476.16Z"/><path class="cls-86" d="M505.61,476.16a6.83,6.83,0,0,0,8.94-1.81c7.62-9.92,32.44-42.81,36.3-55,4.57-14.39-12.24-22.41-22.12-6.7s-25.48,43.57-26.35,55.11C502.05,472.47,503.62,474.92,505.61,476.16Z"/><path class="cls-15" d="M551.93,418.92c-2.3,7.2-11.53,21.25-20.62,34.09-4.41-.39-8.67-1.15-12.45-3.88-2.84-2.06-7.52-6-9.58-8.88,5.42-10.61,13.6-21.56,18.64-29.57C538.37,394.07,556.77,403.69,551.93,418.92Z"/><path class="cls-20" d="M556.73,459.77a4.88,4.88,0,0,1,2.87,9.05,42.67,42.67,0,0,1-9.66,4.17c-10.52,3.17-39.88,8.95-45.71,2.4s4.55-12.51,11.38-13.07,32.29-1.7,40.87-2.52A1.07,1.07,0,0,1,556.73,459.77Z"/><path class="cls-20" d="M555.27,459.9c3.67,0,7.29.05,10.14-.25a33.87,33.87,0,0,1,12.38-1.25c6.14.71,8.49,2.65,9,3.46s-3.48-.1-3.48-.1,4,.92,5,2.55a1.89,1.89,0,0,1-.61,2.66s1.91,2-.17,2.87a18.7,18.7,0,0,1-4.36,1l.13.05c-5.1.92-8.76,1.48-16.05-.19a67.54,67.54,0,0,0-12.94-1.58C548.51,467.06,550.85,459.89,555.27,459.9Z"/><path class="cls-20" d="M578.7,372.62l2.89,34.73-23.2-12.54s.05-2.89,2-16.39l1.92-13.51Z"/><path class="cls-87" d="M571.76,384.16a43,43,0,0,0,8.52,7.45l-1.58-19-16.39-7.71-.84,5.91C563.6,375.75,568.3,380.3,571.76,384.16Z"/><path class="cls-20" d="M590.4,353.23c-3.42-8.21-.61-11.16-3.53-14,0,0,0,0,0-.05-5.15-5-24.61-.54-29.66,13.09s8.34,23,8.34,23,13.73,11.29,22.52,6.79c1.58-.81,2.79-3.93,3.66-7.49,1.17-4.74-.58-10.63-1.23-15.47C590.37,358.45,591,354.81,590.4,353.23Z"/><path class="cls-88" d="M591.11,370.36a4.11,4.11,0,0,1-1.88-.07c-1.06-.46-.94-2.23-2.3-2.18-3.53.11-7.85.39-9.84,2.49-1.31,1.37-2,.88-4.1,1.06-4.37.37-4.09-1.09-5.94-4.29-.68-1.19-1.55-2.25-2.22-3.43s-.88-2.79-2.33-3a13.23,13.23,0,0,0-3.37.54c-.91.14-1.82.3-2.72.47,1.76,8.21,9.1,13.35,9.1,13.35s13.73,11.29,22.52,6.79c1.58-.81,2.79-3.93,3.66-7.49a16.56,16.56,0,0,0,.34-5A1.57,1.57,0,0,1,591.11,370.36Z"/><path class="cls-89" d="M564.37,360.54c1.87-3,3.71-5.52,7.3-6.28,5.32-1.13,13.84.11,17.57-4.42-1.52-5.7.11-8.2-2.37-10.61,0,0,0,0,0-.05-5.15-5-24.61-.54-29.66,13.09-2.67,7.22-.16,13.25,2.77,17.32A56.22,56.22,0,0,1,564.37,360.54Z"/><path d="M591.39,342.29l-1.9.33s.66-12.85-13.58-10.33-20.78,15.44-23.63,15.95l-2.84.51,2.23,1.55s-3.63,1.63-2.28,9.23,11.31,19.54,11.31,19.54l.93-1.89,0-4.14s-7.05-6.59-4.37-8.05c1-.55,2,.45,2.88,1.9a14.24,14.24,0,0,0,4.16-4.88l-1.41-4.69s9.88-9.79,16.08-7.95,9.66-.73,11.23-3A5.92,5.92,0,0,0,591.39,342.29Z"/><path class="cls-20" d="M560.79,374.15s-5.76-4.85-5.65-9.77,6.64-1.17,7.49,3.57l1,5.7Z"/><path class="cls-11" d="M569.19,409.11a12.64,12.64,0,0,1,5.25-3.58,4.54,4.54,0,0,1,1.92-.38l.39-.42S564.32,398,559,389.15l-6.34,7.59s1.93,2.89,4.83,7.71c2.14,3.58,8.23,7.15,9.75,8.76A15.59,15.59,0,0,1,569.19,409.11Z"/><path class="cls-11" d="M581,409.11a8.65,8.65,0,0,0-2.93-3.58,1.62,1.62,0,0,0-1.07-.38l-.22-.42s1.16-3.87,4.15-12.69l3.54,4.69a10.58,10.58,0,0,1,1,8.68,50.55,50.55,0,0,1-3.32,7.79A24.26,24.26,0,0,0,581,409.11Z"/><path class="cls-20" d="M663.82,404.58s3.76,10.91,10,3.62,11.64-9.47,13.64-13.86,1.81-14.22,1.19-17S672.41,386,663.82,404.58Z"/><path class="cls-90" d="M672.7,390.16a17,17,0,0,1,2.24,5.38c.66,3.33-.53,6.23,1.71,9.18.06.07.09.16.14.23,4.89-4.82,9-7,10.62-10.61,2-4.38,1.81-14.22,1.19-17C688.17,375.29,680.31,380.45,672.7,390.16Z"/><path class="cls-19" d="M576.72,404.46s1.93,12.53,1,36.65"/><path class="cls-11" d="M574.31,418.45a1,1,0,1,0-1-1A1,1,0,0,0,574.31,418.45Z"/><path class="cls-11" d="M574.8,425.68a1,1,0,0,0,0-1.94,1,1,0,1,0,0,1.94Z"/><path class="cls-11" d="M574.8,433.39a1,1,0,1,0-1-1A1,1,0,0,0,574.8,433.39Z"/><path d="M577.17,363.64a1,1,0,1,0-1-1A1,1,0,0,0,577.17,363.64Z"/><path class="cls-81" d="M572.87,360.5s-.67-3.8,4.25-3.69"/><path d="M588.56,361.66a1,1,0,1,0-1-1A1,1,0,0,0,588.56,361.66Z"/><path class="cls-81" d="M591.86,357.17s-.68-3.81-5.26-2"/><path class="cls-81" d="M583.25,359.89s5.33,4.47,5.67,6.38-3.2,2-3.2,2"/><path class="cls-11" d="M579.71,370c-.2,1.2-.38,5.6,2.64,6.4,3.7,1,4.46-3.92,4.48-4C584.2,373,581.91,372.26,579.71,370Z"/><path class="cls-91" d="M512.71,438.7a40.18,40.18,0,0,0,23.46,11.16"/><path class="cls-91" d="M619.32,425.68s-7.55,14.12-19.47,19.09"/><path class="cls-66" d="M558.48,365s-2.82,0-.94,2.82"/><path class="cls-81" d="M564.11,362.14l-2.1,3.95-3.62-5.87"/><path class="cls-81" d="M565.05,363.07l-1.88,3.76"/><path class="cls-20" d="M672.66,394.61a47.79,47.79,0,0,1,10.48-6.25c5.44-2.19,2.5,2.41-2.53,6.48s-5.14,8.05-7.44,6.57S668.05,400.57,672.66,394.61Z"/><path class="cls-27" d="M544.86,478.1l332.79-1.78L852,651.41H525.15Z"/><path class="cls-18" d="M693.56,522.6c33.76-5.21,67.63-10.24,101.51-16,17.08-2.89,34.23-5.7,51.28-9.34,9.69-2.07,19.37-4.5,29.13-6.16l2.17-14.8H519.84l-4.05,76C574.72,542.39,633.88,531.79,693.56,522.6Z"/><path class="cls-10" d="M895.17,469.31H509.3l.76,7.78H895.15Z"/><path class="cls-19" d="M469.38,477.09H841.09"/><g class="cls-41"><path class="cls-92" d="M447.61,534.88H869.76"/><path class="cls-92" d="M821.67,584.72c13.34.42,27.42.42,40.62,0"/><path class="cls-93" d="M453.69,584.72c53.61.42,295.3.42,348.92,0Z"/><path class="cls-92" d="M809.32,633.27c16.3-.23,32.26-.23,48.24,0"/><path class="cls-92" d="M459.61,633.27c51.45-.23,102.16-.23,153.83,0"/></g><path class="cls-18" d="M475.26,476.32h74.92L532.42,651.41H460.91Z"/><path class="cls-10" d="M490.2,487.12A89.75,89.75,0,0,1,519,492.25a113.6,113.6,0,0,1,28.06,14.92l3.13-30.85H475.26l-.85,10.28C479.73,486.55,485.12,487.05,490.2,487.12Z"/><path class="cls-18" d="M574.54,469.31H460.18l1.05,7.78H575.36Z"/><path class="cls-94" d="M704.34,442.14h15.94s-.37-4.11,2.66-10.49-8-14.14-8-14.14-15.18-.91-14.42,0,5.31,7.29,6.83,12.77S703.58,434.84,704.34,442.14Z"/><path class="cls-18" d="M721.78,444.85a9.28,9.28,0,1,0,9.27,9.28A9.27,9.27,0,0,0,721.78,444.85Zm0,16.43a7.16,7.16,0,1,1,7.15-7.15A7.15,7.15,0,0,1,721.78,461.28Z"/><path class="cls-18" d="M723.21,440.77H702.67V469h20.54Z"/><path class="cls-95" d="M616.23,466.83H562.7a4.69,4.69,0,0,0-4.69,4.7h58.22Z"/><path class="cls-11" d="M666.87,415.13H591.23a5.58,5.58,0,0,0-5.41,4.91l-4.77,46.58a4.35,4.35,0,0,0,4.41,4.92h75.63a5.58,5.58,0,0,0,5.41-4.92L671.27,420A4.36,4.36,0,0,0,666.87,415.13Z"/><path class="cls-96" d="M667.8,415.13H592.17a5.58,5.58,0,0,0-5.41,4.91L582,466.62a4.35,4.35,0,0,0,4.4,4.92H662a5.58,5.58,0,0,0,5.41-4.92L672.21,420A4.36,4.36,0,0,0,667.8,415.13Z"/><path class="cls-19" d="M628.43,448.05a6.57,6.57,0,1,0-6.57-6.57A6.58,6.58,0,0,0,628.43,448.05Z"/></g></g></svg>