<svg xmlns="http://www.w3.org/2000/svg" viewBox="0 0 170.02 39.96"><defs><style>.cls-1{fill:#8bb657;}.cls-2{fill:#1554a2;}</style></defs><g id="Layer_2" data-name="Layer 2"><g id="Layer_1-2" data-name="Layer 1"><path class="cls-1" d="M9.08,13.32H0L9.7,26.64,0,40H9.08l9.7-13.32Z"/><path class="cls-2" d="M21,26.64h9.08l-9.7-13.32L30.05,0H21l-9.7,13.32Z"/><path class="cls-2" d="M44.76,26.55l8.45-8.07H57l-8.92,8.18L58,36.38h-3.9L44.76,27v9.41H42.23V7.45h2.53Z"/><path class="cls-2" d="M59.18,36.88H53.85l-8.59-8.69v8.69H41.73V7h3.53V25.38L53,18h5.28l-9.48,8.69Zm-4.91-1h2.47l-9.38-9.23L55.72,19H53.41l-8.15,7.78Zm-11.54,0h1.53V8H42.73Z"/><path class="cls-2" d="M73.61,36.38a23,23,0,0,1-.12-2.87h-.07a7.23,7.23,0,0,1-6,3.33c-4.55,0-6.73-2.56-6.73-7V18.47H63.2v9.91c0,4,1.11,6.16,4.86,6.16.54,0,5.43-.34,5.43-6.89V18.47H76v14c0,1,.11,2.64.19,3.94Z"/><path class="cls-2" d="M67.41,37.34c-4.66,0-7.23-2.67-7.23-7.51V18H63.7V28.38c0,4.13,1.18,5.66,4.36,5.66C68.26,34,73,34,73,27.65V18h3.53V32.44c0,.73.07,2,.13,3l.09,1.41H73.16l0-.44c-.06-.52-.09-1-.11-1.55A8,8,0,0,1,67.41,37.34ZM61.18,19V29.83c0,4.32,2.09,6.51,6.23,6.51A6.69,6.69,0,0,0,73,33.26l.15-.25h.79l.07.5c0,.78,0,1.58.07,2.37h1.62l0-.35c-.07-1.14-.14-2.32-.14-3.09V19H74v8.68C74,35,68.12,35,68.06,35c-4.72,0-5.36-3.37-5.36-6.66V19Z"/><path class="cls-2" d="M82.22,24.06c0-1.61-.08-3-.16-5.59h2.49V21.8h.08A5.87,5.87,0,0,1,90.37,18a6.51,6.51,0,0,1,1.87.23l-.49,2.49a4.19,4.19,0,0,0-1.46-.19,5.6,5.6,0,0,0-5.55,5.74v10.1H82.22Z"/><path class="cls-2" d="M85.24,36.88H81.72V24.06c0-1.1,0-2.09-.08-3.45L81.55,18h3.5V20a6.5,6.5,0,0,1,5.32-2.51,7.13,7.13,0,0,1,2,.25l.44.12-.7,3.53-.55-.21A3.75,3.75,0,0,0,90.29,21a5.12,5.12,0,0,0-5.05,5.24Zm-2.52-1h1.52v-9.6A6.12,6.12,0,0,1,90.29,20a6.69,6.69,0,0,1,1.07.07l.3-1.5a7.19,7.19,0,0,0-1.29-.1A5.4,5.4,0,0,0,85.09,22L85,22.3h-.84l-.08-.5V19H82.58l0,1.61c.05,1.36.09,2.37.09,3.48Z"/><path class="cls-2" d="M95.73,28.12a6.68,6.68,0,0,0,12.32,3.33l2,1.6a9.32,9.32,0,0,1-7.69,3.79,9.08,9.08,0,0,1-9.25-9.41,9,9,0,0,1,9-9.41c5.43,0,8.57,4.05,8.57,9v1.15Zm12.18-2.07a5.4,5.4,0,0,0-5.82-5.74c-3.29,0-6.28,2.79-6.28,5.74Z"/><path class="cls-2" d="M102.31,37.34a9.61,9.61,0,0,1-9.75-9.91c0-5.65,4.09-9.91,9.53-9.91s9.07,3.92,9.07,9.45v1.65H96.3a6.14,6.14,0,0,0,6,5.43,6.25,6.25,0,0,0,5.32-2.86l.3-.49L110.7,33l-.3.38A9.88,9.88,0,0,1,102.31,37.34Zm-.23-18.82c-4.86,0-8.52,3.83-8.52,8.91a8.54,8.54,0,0,0,8.75,8.91,8.71,8.71,0,0,0,7-3.22l-1.14-.94a7.17,7.17,0,0,1-12.87-3.56h-.06v-.5l.5,0v-.48h14.43V27C110.16,22.79,107.66,18.56,102.08,18.52Zm6.33,8H95.31v-.5c0-3.27,3.23-6.24,6.78-6.24,3.84,0,6.32,2.45,6.32,6.24Zm-12.06-1h11c-.2-2.94-2.19-4.74-5.3-4.74A5.93,5.93,0,0,0,96.35,25.55Z"/><path class="cls-2" d="M117.66,18.47a23,23,0,0,1,.12,2.87h.08a7.21,7.21,0,0,1,6-3.33c4.56,0,6.74,2.56,6.74,7V36.38h-2.53V26.47c0-4-1.11-6.16-4.86-6.16-.53,0-5.43.34-5.43,6.89v9.18h-2.52v-14c0-.95-.12-2.64-.19-3.94Z"/><path class="cls-2" d="M131.09,36.88h-3.52V26.47c0-4.13-1.18-5.66-4.36-5.66-.2,0-4.93.07-4.93,6.39v9.68h-3.52V22.41c0-.73-.08-2-.14-3L114.54,18h3.57l0,.44c.06.52.09,1,.11,1.55a8,8,0,0,1,5.59-2.45c4.67,0,7.23,2.67,7.23,7.51Zm-2.52-1h1.52V25c0-4.32-2.09-6.51-6.23-6.51a6.71,6.71,0,0,0-5.57,3.08l-.14.25h-.8l-.07-.5c0-.78,0-1.58-.07-2.37h-1.62l0,.35c.06,1.14.14,2.33.14,3.09V35.88h1.52V27.2c0-7.31,5.87-7.39,5.93-7.39,4.72,0,5.36,3.37,5.36,6.66Z"/><path class="cls-2" d="M146,22.72a4.19,4.19,0,0,0-3.86-2.41c-1.76,0-3.71.76-3.71,2.68,0,1.68,1.18,2.29,3.51,2.83l2.57.61c2.48.58,4.36,2.37,4.36,4.9,0,3.9-3.48,5.51-7,5.51A7.79,7.79,0,0,1,135,33.36l2.18-1.49a5.44,5.44,0,0,0,4.71,2.68c2.07,0,4.21-.92,4.21-3,0-1.8-1.53-2.41-3.4-2.87l-2.45-.57c-1.23-.31-4.6-1.31-4.6-4.71,0-3.71,3.26-5.4,6.63-5.4,2.48,0,4.82.89,6,3.22Z"/><path class="cls-2" d="M141.93,37.34a8.25,8.25,0,0,1-7.31-3.7l-.27-.41,3-2.06.27.43a5,5,0,0,0,4.29,2.45c1.38,0,3.71-.53,3.71-2.49,0-1.38-1.11-1.92-3-2.38l-2.45-.58c-4.12-1-5-3.39-5-5.19,0-4.07,3.58-5.9,7.12-5.9,3,0,5.31,1.24,6.42,3.5l.2.39-3.1,2-.25-.49a3.67,3.67,0,0,0-3.42-2.14c-1.48,0-3.21.57-3.21,2.18,0,1.24.73,1.79,3.13,2.34l2.56.62c2.88.66,4.75,2.78,4.75,5.38C149.39,35.77,145.37,37.34,141.93,37.34Zm-6.19-3.85a7.35,7.35,0,0,0,6.19,2.85c3,0,6.46-1.31,6.46-5,0-2.15-1.52-3.84-4-4.41l-2.56-.61c-2.06-.48-3.9-1.09-3.9-3.32s2.11-3.18,4.21-3.18a4.6,4.6,0,0,1,4,2.2l1.44-1a5.9,5.9,0,0,0-5.32-2.55c-2.82,0-6.12,1.28-6.12,4.9,0,2.1,1.42,3.52,4.22,4.22l2.44.57c1.33.33,3.79.93,3.79,3.36s-2.36,3.49-4.71,3.49a5.83,5.83,0,0,1-4.84-2.49Z"/><path class="cls-1" d="M154.59,28.12a6.68,6.68,0,0,0,12.32,3.33l2,1.6a9.32,9.32,0,0,1-7.69,3.79,9.09,9.09,0,0,1-9.26-9.41,9,9,0,0,1,9-9.41c5.44,0,8.58,4.05,8.58,9v1.15Zm12.17-2.07a5.41,5.41,0,0,0-5.82-5.74c-3.29,0-6.28,2.79-6.28,5.74Z"/><path class="cls-1" d="M161.17,37.34a9.62,9.62,0,0,1-9.76-9.91c0-5.65,4.1-9.91,9.53-9.91S170,21.44,170,27v1.65H155.16a6.14,6.14,0,0,0,6,5.43,6.25,6.25,0,0,0,5.32-2.86l.3-.49L169.56,33l-.3.38A9.88,9.88,0,0,1,161.17,37.34Zm-.23-18.82c-4.86,0-8.53,3.83-8.53,8.91a8.55,8.55,0,0,0,8.76,8.91,8.71,8.71,0,0,0,7-3.22L167,32.18a7.3,7.3,0,0,1-5.85,2.87,7.22,7.22,0,0,1-7-6.43h-.06v-.5l.5,0v-.48H169V27C169,22.79,166.52,18.56,160.94,18.52Zm6.32,8h-13.1v-.5c0-3.27,3.23-6.24,6.78-6.24,3.84,0,6.32,2.45,6.32,6.24Zm-12.07-1h11.05c-.2-2.94-2.19-4.74-5.3-4.74A5.94,5.94,0,0,0,155.19,25.55Z"/><path class="cls-1" d="M166.77,12.77H154.61v2.06h12.16Z"/></g></g></svg>